<svg width="20" height="22" viewBox="0 0 20 22" fill="none" xmlns="http://www.w3.org/2000/svg">
<path d="M16.1397 1.8231H15.3936V1.00429C15.3936 0.536456 15.044 0.157227 14.6127 0.157227C14.1814 0.157227 13.8317 0.536456 13.8317 1.00429V1.8231H6.16953V1.00429C6.16953 0.536456 5.8199 0.157227 5.38858 0.157227C4.95725 0.157227 4.60762 0.536456 4.60762 1.00429V1.8231H3.86162C1.73231 1.8231 0 3.70205 0 6.01156V17.6535C0 19.963 1.73231 21.842 3.86162 21.842H16.1397C18.269 21.842 20.0013 19.963 20.0013 17.6535V6.01156C20.0013 3.70205 18.269 1.8231 16.1397 1.8231ZM3.86162 3.51722H4.60762V5.16899C4.60762 5.63682 4.95725 6.01605 5.38858 6.01605C5.8199 6.01605 6.16953 5.63682 6.16953 5.16899V3.51722H13.8318V5.16899C13.8318 5.63682 14.1814 6.01605 14.6127 6.01605C15.044 6.01605 15.3937 5.63682 15.3937 5.16899V3.51722H16.1397C17.4078 3.51722 18.4394 4.63619 18.4394 6.01156V6.82076H1.56191V6.01156C1.56191 4.63619 2.59354 3.51722 3.86162 3.51722ZM16.1397 20.1479H3.86162C2.59354 20.1479 1.56191 19.0289 1.56191 17.6535V8.51488H18.4394V17.6535C18.4394 19.0289 17.4078 20.1479 16.1397 20.1479ZM6.93748 11.8467C6.93748 12.3145 6.58785 12.6937 6.15653 12.6937H4.62066C4.18934 12.6937 3.83971 12.3145 3.83971 11.8467C3.83971 11.3788 4.18934 10.9996 4.62066 10.9996H6.15653C6.58781 10.9996 6.93748 11.3788 6.93748 11.8467ZM16.1616 11.8467C16.1616 12.3145 15.812 12.6937 15.3807 12.6937H13.8448C13.4135 12.6937 13.0639 12.3145 13.0639 11.8467C13.0639 11.3788 13.4135 10.9996 13.8448 10.9996H15.3807C15.812 10.9996 16.1616 11.3788 16.1616 11.8467ZM11.5451 11.8467C11.5451 12.3145 11.1955 12.6937 10.7641 12.6937H9.22829C8.79697 12.6937 8.44733 12.3145 8.44733 11.8467C8.44733 11.3788 8.79697 10.9996 9.22829 10.9996H10.7641C11.1954 10.9996 11.5451 11.3788 11.5451 11.8467ZM6.93748 16.8443C6.93748 17.3122 6.58785 17.6914 6.15653 17.6914H4.62066C4.18934 17.6914 3.83971 17.3122 3.83971 16.8443C3.83971 16.3765 4.18934 15.9973 4.62066 15.9973H6.15653C6.58781 15.9973 6.93748 16.3765 6.93748 16.8443ZM16.1616 16.8443C16.1616 17.3122 15.812 17.6914 15.3807 17.6914H13.8448C13.4135 17.6914 13.0639 17.3122 13.0639 16.8443C13.0639 16.3765 13.4135 15.9973 13.8448 15.9973H15.3807C15.812 15.9973 16.1616 16.3765 16.1616 16.8443ZM11.5451 16.8443C11.5451 17.3122 11.1955 17.6914 10.7641 17.6914H9.22829C8.79697 17.6914 8.44733 17.3122 8.44733 16.8443C8.44733 16.3765 8.79697 15.9973 9.22829 15.9973H10.7641C11.1954 15.9973 11.5451 16.3765 11.5451 16.8443Z" fill="#808D9E"/>
</svg>
