<svg width="18" height="14" viewBox="0 0 18 14" fill="none" xmlns="http://www.w3.org/2000/svg">
<path d="M1.25191 0.732235C0.728196 0.816815 0.246657 1.25381 0.0568527 1.8071C-0.0239898 2.04674 -0.01696 2.52955 0.0673973 2.78329C0.432946 3.84405 1.71939 4.20352 2.59109 3.48812C3.15347 3.02645 3.30109 2.15246 2.92852 1.48288C2.71762 1.10579 2.27475 0.799194 1.84242 0.728711C1.60692 0.689945 1.49444 0.689945 1.25191 0.732235Z" fill="white"/>
<path d="M5.42796 1.11696C5.08702 1.18745 4.77419 1.44118 4.61251 1.78303C4.53518 1.94866 4.52112 2.02972 4.52112 2.27993C4.52112 2.54777 4.53518 2.60768 4.63711 2.8156C4.76716 3.08343 4.92533 3.2385 5.20652 3.36889L5.39984 3.46052L11.1467 3.47109C15.3821 3.47814 16.9427 3.47109 17.0868 3.4429C17.6317 3.3266 18.0007 2.86141 18.0007 2.27993C18.0007 1.80065 17.7687 1.42709 17.3399 1.21564L17.1044 1.09934L11.34 1.09582C8.16957 1.09229 5.5088 1.10287 5.42796 1.11696Z" fill="white"/>
<path d="M1.23285 5.45546C0.702099 5.55766 0.245163 5.97703 0.0553595 6.53032C-0.0184532 6.75234 -0.0184532 7.25277 0.0553595 7.47479C0.311946 8.23248 1.0325 8.68005 1.79523 8.56375C2.58608 8.44041 3.13089 7.80254 3.13089 7.00256C3.13089 5.98408 2.2381 5.25811 1.23285 5.45546Z" fill="white"/>
<path d="M5.40687 5.84337C5.06944 5.92442 4.76716 6.17464 4.61251 6.50591C4.53518 6.67154 4.52112 6.7526 4.52112 7.00281C4.52112 7.25303 4.53518 7.33408 4.61251 7.49972C4.73201 7.75346 4.94993 7.97195 5.20301 8.09177L5.39984 8.1834L11.1783 8.19397C17.4875 8.20455 17.1501 8.21159 17.4735 8.00719C18.1765 7.56315 18.1765 6.44247 17.4735 5.99843C17.1501 5.79403 17.4875 5.8046 11.2556 5.80813C8.06764 5.81165 5.48068 5.82575 5.40687 5.84337Z" fill="white"/>
<path d="M1.17107 10.1917C0.643839 10.3362 0.243142 10.7063 0.0673973 11.2243C-0.01696 11.4745 -0.0239898 11.9609 0.0568527 12.197C0.31344 12.9511 1.03048 13.3952 1.80024 13.2824C2.40128 13.1908 2.87579 12.782 3.07614 12.1864C3.15698 11.9397 3.14995 11.4816 3.06208 11.2243C2.78792 10.4314 1.95841 9.98029 1.17107 10.1917Z" fill="white"/>
<path d="M5.3155 10.5944C4.28915 10.9504 4.21183 12.353 5.196 12.8146L5.39283 12.9062H11.2451H17.0974L17.3329 12.79C18.31 12.3071 18.18 10.8552 17.1326 10.5768C16.9884 10.538 15.9094 10.5275 11.2275 10.5275C5.80759 10.531 5.48773 10.5345 5.3155 10.5944Z" fill="white"/>
</svg>
