<svg width="17" height="14" viewBox="0 0 17 14" fill="none" xmlns="http://www.w3.org/2000/svg">
<path d="M1.18244 0.0360339C0.687783 0.130011 0.232968 0.61556 0.0536975 1.23033C-0.0226584 1.4966 -0.0160188 2.03305 0.0636569 2.31498C0.408918 3.49361 1.62397 3.89301 2.44729 3.09812C2.97846 2.58516 3.11789 1.61407 2.76599 0.870081C2.5668 0.4511 2.1485 0.110432 1.74017 0.0321181C1.51774 -0.0109546 1.4115 -0.0109546 1.18244 0.0360339Z" fill="white"/>
<path d="M5.12605 0.464485C4.80402 0.5428 4.50856 0.824731 4.35585 1.20456C4.28281 1.38859 4.26953 1.47866 4.26953 1.75667C4.26953 2.05427 4.28281 2.12083 4.37909 2.35186C4.50192 2.64945 4.65131 2.82175 4.9169 2.96663L5.09949 3.06844L10.5274 3.08018C14.5278 3.08801 16.0018 3.08018 16.1379 3.04886C16.6525 2.91964 17.001 2.40276 17.001 1.75667C17.001 1.22413 16.7819 0.809068 16.3769 0.574126L16.1545 0.444907L10.71 0.440991C7.71551 0.437075 5.2024 0.448822 5.12605 0.464485Z" fill="white"/>
<path d="M1.16638 5.28384C0.665087 5.3974 0.233511 5.86337 0.0542403 6.47814C-0.0154759 6.72483 -0.0154759 7.28086 0.0542403 7.52755C0.296587 8.36943 0.977151 8.86672 1.69755 8.7375C2.44451 8.60045 2.95908 7.89171 2.95908 7.00284C2.95908 5.8712 2.11585 5.06456 1.16638 5.28384Z" fill="white"/>
<path d="M5.10613 5.71453C4.78742 5.80459 4.50192 6.08261 4.35585 6.45068C4.28281 6.63472 4.26953 6.72478 4.26953 7.0028C4.26953 7.28082 4.28281 7.37088 4.35585 7.55492C4.46872 7.83685 4.67455 8.07962 4.91358 8.21276L5.09949 8.31456L10.5573 8.32631C16.5164 8.33806 16.1976 8.34589 16.5031 8.11878C17.167 7.6254 17.167 6.3802 16.5031 5.88682C16.1976 5.65971 16.5164 5.67146 10.6303 5.67537C7.61923 5.67929 5.17584 5.69495 5.10613 5.71453Z" fill="white"/>
<path d="M1.10608 10.5466C0.608108 10.7071 0.229648 11.1183 0.0636569 11.6939C-0.0160188 11.9719 -0.0226584 12.5123 0.0536975 12.7746C0.296044 13.6126 0.973288 14.106 1.70033 13.9807C2.26802 13.8789 2.71619 13.4246 2.90542 12.7629C2.98178 12.4888 2.97514 11.9797 2.89214 11.6939C2.6332 10.8129 1.84972 10.3116 1.10608 10.5466Z" fill="white"/>
<path d="M5.0222 10.9938C4.05281 11.3893 3.97977 12.9477 4.90932 13.4607L5.09523 13.5625H10.6227H16.1502L16.3727 13.4333C17.2956 12.8968 17.1727 11.2836 16.1834 10.9742C16.0473 10.9311 15.0281 10.9194 10.6061 10.9194C5.48697 10.9233 5.18487 10.9272 5.0222 10.9938Z" fill="white"/>
</svg>
