<svg width="27" height="27" viewBox="0 0 27 27" fill="none" xmlns="http://www.w3.org/2000/svg">
<circle opacity="0.9" cx="13.7588" cy="13.2339" r="13.1196" fill="#ECEAF8"/>
<path d="M14.0407 6.57031C14.9245 6.57031 15.7722 6.92141 16.3971 7.54637C17.0221 8.17134 17.3732 9.01897 17.3732 9.90279C17.3732 10.7866 17.0221 11.6343 16.3971 12.2592C15.7722 12.8842 14.9245 13.2353 14.0407 13.2353C13.1569 13.2353 12.3092 12.8842 11.6843 12.2592C11.0593 11.6343 10.7082 10.7866 10.7082 9.90279C10.7082 9.01897 11.0593 8.17134 11.6843 7.54637C12.3092 6.92141 13.1569 6.57031 14.0407 6.57031ZM14.0407 14.9015C17.7231 14.9015 20.7057 16.3928 20.7057 18.234V19.9002H7.37573V18.234C7.37573 16.3928 10.3583 14.9015 14.0407 14.9015Z" fill="#00B087"/>
</svg>
