<svg width="27" height="27" viewBox="0 0 27 27" fill="none" xmlns="http://www.w3.org/2000/svg">
<circle opacity="0.9" cx="13.7588" cy="13.2334" r="13.1196" fill="#ECEAF8"/>
<path d="M14.0407 6.57007C14.9245 6.57007 15.7722 6.92117 16.3971 7.54613C17.0221 8.17109 17.3732 9.01872 17.3732 9.90255C17.3732 10.7864 17.0221 11.634 16.3971 12.259C15.7722 12.8839 14.9245 13.235 14.0407 13.235C13.1569 13.235 12.3092 12.8839 11.6843 12.259C11.0593 11.634 10.7082 10.7864 10.7082 9.90255C10.7082 9.01872 11.0593 8.17109 11.6843 7.54613C12.3092 6.92117 13.1569 6.57007 14.0407 6.57007ZM14.0407 14.9013C17.7231 14.9013 20.7057 16.3926 20.7057 18.2338V19.9H7.37573V18.2338C7.37573 16.3926 10.3583 14.9013 14.0407 14.9013Z" fill="#1B473B"/>
</svg>
