<svg width="28" height="28" viewBox="0 0 28 28" fill="none" xmlns="http://www.w3.org/2000/svg">
<path d="M16.625 17.9375C16.625 19.6289 15.2539 21 13.5625 21C11.8711 21 10.5 19.6289 10.5 17.9375C10.5 16.2461 11.8711 14.875 13.5625 14.875C15.2539 14.875 16.625 16.2461 16.625 17.9375ZM14 14.0446V4.8125C14 4.571 13.804 4.375 13.5625 4.375C13.321 4.375 13.125 4.571 13.125 4.8125V14.0446C13.2703 14.028 13.4129 14 13.5625 14C13.7121 14 13.8547 14.028 14 14.0446ZM13.125 21.8304V23.1875C13.125 23.429 13.321 23.625 13.5625 23.625C13.804 23.625 14 23.429 14 23.1875V21.8304C13.8547 21.847 13.7121 21.875 13.5625 21.875C13.4129 21.875 13.2703 21.847 13.125 21.8304ZM21 16.5804V23.1875C21 23.429 21.196 23.625 21.4375 23.625C21.679 23.625 21.875 23.429 21.875 23.1875V16.5804C21.7297 16.597 21.5871 16.625 21.4375 16.625C21.2879 16.625 21.1453 16.597 21 16.5804ZM21.875 8.79462V4.8125C21.875 4.571 21.679 4.375 21.4375 4.375C21.196 4.375 21 4.571 21 4.8125V8.79462C21.1453 8.778 21.2879 8.75 21.4375 8.75C21.5871 8.75 21.7297 8.778 21.875 8.79462ZM6.125 6.16963V4.8125C6.125 4.571 5.929 4.375 5.6875 4.375C5.446 4.375 5.25 4.571 5.25 4.8125V6.16963C5.39525 6.153 5.53787 6.125 5.6875 6.125C5.83713 6.125 5.97975 6.153 6.125 6.16963ZM5.25 13.9554V23.1875C5.25 23.429 5.446 23.625 5.6875 23.625C5.929 23.625 6.125 23.429 6.125 23.1875V13.9554C5.97975 13.972 5.83713 14 5.6875 14C5.53787 14 5.39525 13.972 5.25 13.9554ZM5.6875 7C3.99612 7 2.625 8.37112 2.625 10.0625C2.625 11.7539 3.99612 13.125 5.6875 13.125C7.37887 13.125 8.75 11.7539 8.75 10.0625C8.75 8.37112 7.37887 7 5.6875 7ZM21.4375 9.625C19.7461 9.625 18.375 10.9961 18.375 12.6875C18.375 14.3789 19.7461 15.75 21.4375 15.75C23.1289 15.75 24.5 14.3789 24.5 12.6875C24.5 10.9961 23.1289 9.625 21.4375 9.625Z" fill="#0B1719"/>
</svg>
