<svg width="28" height="28" viewBox="0 0 28 28" fill="none" xmlns="http://www.w3.org/2000/svg">
<path d="M14.0001 1.16602C11.4619 1.16602 8.9807 1.91868 6.87027 3.32882C4.75984 4.73897 3.11496 6.74326 2.14363 9.08825C1.17231 11.4332 0.918166 14.0136 1.41334 16.503C1.90852 18.9924 3.13078 21.2791 4.92555 23.0739C6.72032 24.8687 9.00701 26.0909 11.4964 26.5861C13.9859 27.0813 16.5662 26.8271 18.9112 25.8558C21.2562 24.8845 23.2605 23.2396 24.6706 21.1292C26.0808 19.0187 26.8334 16.5375 26.8334 13.9993C26.8294 10.597 25.476 7.33509 23.0702 4.92925C20.6643 2.5234 17.4025 1.17003 14.0001 1.16602ZM14.0001 24.4994C11.9234 24.4994 9.89332 23.8835 8.1666 22.7298C6.43988 21.576 5.09407 19.9361 4.29935 18.0175C3.50463 16.0989 3.2967 13.9877 3.70184 11.9509C4.10699 9.9141 5.10701 8.04318 6.57547 6.57473C8.04392 5.10628 9.91484 4.10625 11.9516 3.7011C13.9884 3.29596 16.0996 3.50389 18.0183 4.29861C19.9369 5.09333 21.5768 6.43915 22.7305 8.16586C23.8843 9.89258 24.5001 11.9226 24.5001 13.9993C24.4967 16.7831 23.3894 19.4518 21.421 21.4202C19.4526 23.3886 16.7838 24.496 14.0001 24.4994ZM15.1668 19.2493V21.5827H12.8334V19.2493H15.1668ZM18.6668 11.0827C18.668 11.7824 18.5113 12.4733 18.2083 13.104C17.9053 13.7346 17.4638 14.2888 16.9168 14.725C16.0331 15.4098 15.4356 16.3986 15.2403 17.4993H12.8696C12.9727 16.5999 13.255 15.7302 13.6996 14.9415C14.1442 14.1529 14.7422 13.4612 15.4584 12.9073C15.7458 12.6773 15.9747 12.3826 16.1264 12.0471C16.2781 11.7117 16.3483 11.3452 16.3312 10.9774C16.3142 10.6097 16.2103 10.2512 16.0282 9.93132C15.8461 9.61139 15.5909 9.3391 15.2834 9.13668C14.9407 8.91268 14.5464 8.78009 14.138 8.7515C13.7296 8.72291 13.3207 8.79928 12.9501 8.97335C12.5548 9.16281 12.2231 9.46302 11.9953 9.83749C11.7674 10.212 11.6533 10.6446 11.6668 11.0827C11.6668 11.3921 11.5438 11.6888 11.325 11.9076C11.1063 12.1264 10.8095 12.2493 10.5001 12.2493C10.1907 12.2493 9.89392 12.1264 9.67513 11.9076C9.45634 11.6888 9.33342 11.3921 9.33342 11.0827C9.31606 10.186 9.56346 9.30415 10.0447 8.54736C10.5259 7.79058 11.2196 7.19247 12.0389 6.82785C12.7652 6.50326 13.5616 6.36678 14.3545 6.43101C15.1475 6.49523 15.9115 6.75809 16.5761 7.19535C17.2183 7.62048 17.7453 8.19793 18.1101 8.87622C18.4749 9.5545 18.6661 10.3125 18.6668 11.0827Z" fill="black"/>
</svg>
