<svg width="30" height="30" viewBox="0 0 30 30" fill="none" xmlns="http://www.w3.org/2000/svg">
<path fill-rule="evenodd" clip-rule="evenodd" d="M15.3125 4.375C9.28125 4.375 4.375 9.28125 4.375 15.3125C4.375 21.3438 9.28125 26.25 15.3125 26.25C21.3438 26.25 26.25 21.3438 26.25 15.3125C26.25 9.28125 21.3438 4.375 15.3125 4.375ZM15.3125 28.125C8.2475 28.125 2.5 22.3775 2.5 15.3125C2.5 8.2475 8.2475 2.5 15.3125 2.5C22.3775 2.5 28.125 8.2475 28.125 15.3125C28.125 22.3775 22.3775 28.125 15.3125 28.125Z" fill="#808D9E"/>
<path fill-rule="evenodd" clip-rule="evenodd" d="M13.9175 12.6079C13.6963 13.8591 13.6925 16.8479 13.9138 18.0354C15.0113 17.6479 17.3888 16.0854 18.0288 15.3116C17.3913 14.5604 15.0438 13.0304 13.9175 12.6079ZM13.535 20.0017C13.1975 20.0017 12.8775 19.9054 12.6163 19.6454C12.415 19.4466 11.8775 18.9154 11.875 15.4166C11.8738 11.7016 12.4325 11.1491 12.6163 10.9654C13.27 10.3179 14.335 10.7616 14.7888 10.9516C15.4388 11.2229 20 13.5591 20 15.3066C20 16.9441 15.895 19.2342 14.8463 19.6717C14.4375 19.8417 13.9713 20.0017 13.535 20.0017Z" fill="#808D9E"/>
</svg>
