<svg width="34" height="33" viewBox="0 0 34 33" fill="none" xmlns="http://www.w3.org/2000/svg">
<rect x="0.686035" width="33" height="33" rx="5" fill="#00B087"/>
<g clip-path="url(#clip0_355_13261)">
<path d="M23.1344 12.9231H21.567V10.0293C21.567 9.75318 21.3464 9.5293 21.0743 9.5293H12.7149C12.4428 9.5293 12.2222 9.75315 12.2222 10.0293V12.9231H10.6548C10.021 12.9231 9.50537 13.4465 9.50537 14.0898V19.1201C9.50537 19.7634 10.021 20.2868 10.6548 20.2868H12.2223V22.9708C12.2223 23.2469 12.4428 23.4708 12.7149 23.4708H21.0743C21.3463 23.4708 21.5669 23.2469 21.5669 22.9708V20.2868H23.1344C23.7682 20.2868 24.2838 19.7634 24.2838 19.1201V14.0898C24.2838 13.4465 23.7682 12.9231 23.1344 12.9231ZM13.2075 10.5293H20.5817V12.9231H13.2075V10.5293ZM20.5816 22.4708H13.2075C13.2075 22.3731 13.2075 18.501 13.2075 18.3801H20.5817C20.5816 18.504 20.5816 22.3768 20.5816 22.4708ZM21.0743 15.8591H19.8204C19.5483 15.8591 19.3278 15.6352 19.3278 15.3591C19.3278 15.0829 19.5483 14.8591 19.8204 14.8591H21.0743C21.3464 14.8591 21.567 15.0829 21.567 15.3591C21.567 15.6352 21.3464 15.8591 21.0743 15.8591Z" fill="white"/>
</g>
<defs>
<clipPath id="clip0_355_13261">
<rect width="14.7785" height="15" fill="white" transform="translate(9.50537 9)"/>
</clipPath>
</defs>
</svg>
