<svg width="34" height="34" viewBox="0 0 34 34" fill="none" xmlns="http://www.w3.org/2000/svg">
<path d="M29.4242 7.95445C29.4238 8.72 29.1196 9.45408 28.5784 9.99557C28.0372 10.5371 27.3034 10.8417 26.5378 10.8427H25.6323V25.8671C25.6314 26.6323 25.327 27.3659 24.7859 27.907C24.2448 28.4481 23.5112 28.7526 22.7459 28.7535H7.46202C7.08286 28.7535 6.7074 28.6788 6.35709 28.5337C6.00679 28.3886 5.68849 28.1759 5.42038 27.9078C5.15227 27.6397 4.93959 27.3214 4.79449 26.9711C4.64939 26.6208 4.57471 26.2454 4.57471 25.8662C4.57471 25.487 4.64939 25.1116 4.79449 24.7613C4.93959 24.411 5.15227 24.0927 5.42038 23.8245C5.68849 23.5564 6.00679 23.3438 6.35709 23.1987C6.7074 23.0536 7.08286 22.9789 7.46202 22.9789H8.36571V7.95445C8.36571 7.18829 8.66994 6.45348 9.21153 5.91155C9.75313 5.36962 10.4878 5.06493 11.2539 5.06445H26.536C27.3019 5.06493 28.0362 5.36937 28.5778 5.91091C29.1193 6.45246 29.4238 7.18681 29.4242 7.95266V7.95445ZM7.46202 26.7708H20.0009C19.8073 26.1839 19.8073 25.5503 20.0009 24.9634H7.4656C7.22593 24.9634 6.99607 25.0586 6.8266 25.2281C6.65713 25.3976 6.56192 25.6274 6.56192 25.8671C6.56192 26.1068 6.65713 26.3366 6.8266 26.5061C6.99607 26.6756 7.22593 26.7708 7.4656 26.7708H7.46202ZM23.6478 7.95445C23.6474 7.64755 23.6957 7.34252 23.791 7.05077H11.2557C11.0545 7.05041 10.8591 7.11787 10.701 7.24224L10.6974 7.24403C10.5893 7.32812 10.5019 7.4359 10.4421 7.55907C10.3822 7.68223 10.3514 7.8175 10.352 7.95445V22.9789H21.6919C21.9391 22.976 22.1798 23.0572 22.3749 23.209C22.5699 23.3608 22.7077 23.5743 22.7656 23.8146C22.8336 24.0445 22.8267 24.2901 22.746 24.5159C22.6652 24.7417 22.5148 24.936 22.3164 25.0708C22.1762 25.1469 22.0587 25.2588 21.9758 25.3951C21.8928 25.5314 21.8474 25.6872 21.8442 25.8467C21.841 26.0062 21.8801 26.1637 21.9574 26.3032C22.0348 26.4427 22.1477 26.5593 22.2848 26.641C22.4218 26.7227 22.578 26.7667 22.7375 26.7685C22.897 26.7703 23.0542 26.7299 23.193 26.6513C23.3318 26.5726 23.4474 26.4587 23.5279 26.3209C23.6084 26.1832 23.651 26.0266 23.6514 25.8671L23.6478 7.95445ZM22.1089 10.5277H11.8015V12.5087H22.1089V10.5277ZM22.1089 14.5719H11.8015V16.5529H22.1089V14.5719ZM22.1089 18.6161H11.8015V20.5989H22.1089V18.6161ZM27.4397 7.95445C27.4392 7.71493 27.3439 7.48535 27.1745 7.31597C27.0051 7.1466 26.7755 7.05124 26.536 7.05077C26.3347 7.04985 26.1391 7.11737 25.9813 7.24224H25.9777C25.8691 7.32642 25.7814 7.43443 25.7212 7.55792C25.661 7.68141 25.63 7.81708 25.6305 7.95445V8.85814H26.536C26.7755 8.85766 27.0051 8.7623 27.1745 8.59293C27.3439 8.42356 27.4392 8.19398 27.4397 7.95445Z" fill="black"/>
</svg>
