<svg width="23" height="24" viewBox="0 0 23 24" fill="none" xmlns="http://www.w3.org/2000/svg">
<path d="M20.5218 0H2.47821C1.11173 0 0 1.16002 0 2.58591V18.4015C0 19.8274 1.11173 20.9875 2.47821 20.9875H8.33391L11.0235 23.794C11.1498 23.9259 11.3212 24 11.5 24C11.6787 24 11.85 23.9259 11.9764 23.794L14.666 20.9875H20.5218C21.8883 20.9875 23 19.8274 23 18.4015V2.58591C23 1.16002 21.8883 0 20.5218 0ZM21.6523 18.4015C21.6523 19.052 21.1452 19.5812 20.5218 19.5812H14.387C14.2082 19.5812 14.0368 19.6553 13.9105 19.7872L11.5 22.3025L9.08949 19.7872C8.96313 19.6553 8.79175 19.5812 8.61301 19.5812H2.47821C1.85482 19.5812 1.34766 19.052 1.34766 18.4015V2.58591C1.34766 1.93542 1.85482 1.40625 2.47821 1.40625H20.5218C21.1452 1.40625 21.6523 1.93542 21.6523 2.58591V18.4015Z" fill="#808D9E"/>
<path d="M17.2885 8.08806L13.7066 7.54478L12.1042 4.1575C11.9907 3.91755 11.7565 3.76562 11.5 3.76562C11.2435 3.76562 11.0093 3.91755 10.8958 4.15755L9.29355 7.54478L5.71134 8.08806C5.45753 8.12655 5.24667 8.31203 5.16738 8.56661C5.08814 8.82114 5.15427 9.10056 5.33791 9.28736L7.93017 11.9239L7.31833 15.6468C7.27498 15.9106 7.37889 16.1771 7.58638 16.3345C7.79392 16.4918 8.06902 16.5125 8.29601 16.388L11.5 14.6304L14.7043 16.388C14.8028 16.4421 14.9105 16.4688 15.0177 16.4688H15.0205C15.3918 16.4678 15.6925 16.1534 15.6925 15.7657C15.6925 15.7117 15.6867 15.6591 15.6757 15.6085L15.0697 11.9239L17.662 9.28741C17.8456 9.10061 17.9118 8.82119 17.8325 8.56666C17.7532 8.31203 17.5424 8.12655 17.2885 8.08806ZM13.8754 11.1749C13.7165 11.3365 13.6441 11.5692 13.6816 11.7973L14.1228 14.4803L11.8135 13.2136C11.6172 13.1059 11.3827 13.1059 11.1864 13.2136L8.87739 14.4803L9.31834 11.7973C9.35581 11.5692 9.28335 11.3365 9.12455 11.175L7.25634 9.2748L9.83796 8.88325C10.0574 8.84997 10.2471 8.70616 10.3453 8.49864L11.5 6.05734L12.6549 8.49869C12.7531 8.70616 12.9427 8.84997 13.1622 8.88325L15.7436 9.2748L13.8754 11.1749Z" fill="#808D9E"/>
</svg>
