<svg width="45" height="45" viewBox="0 0 45 45" fill="none" xmlns="http://www.w3.org/2000/svg">
<path d="M14.0502 5.30012V5.29997C14.0502 4.41985 13.7892 3.55949 13.3003 2.8277C12.8113 2.09591 12.1163 1.52554 11.3032 1.18874C10.4901 0.851928 9.59532 0.763804 8.73212 0.935507C7.86891 1.10721 7.076 1.53103 6.45366 2.15337C5.83132 2.77571 5.4075 3.56861 5.2358 4.43182C5.0641 5.29503 5.15222 6.18977 5.48903 7.0029C5.82584 7.81602 6.3962 8.51101 7.12799 8.99998C7.85979 9.48895 8.72014 9.74994 9.60026 9.74994H9.60041C10.7802 9.74876 11.9114 9.27956 12.7456 8.44531C13.5799 7.61107 14.049 6.47992 14.0502 5.30012ZM9.60026 8.01661C9.06296 8.01661 8.53772 7.85728 8.09097 7.55878C7.64422 7.26027 7.29603 6.83599 7.09041 6.33958C6.88479 5.84318 6.83099 5.29696 6.93582 4.76998C7.04064 4.243 7.29937 3.75894 7.6793 3.37901C8.05923 2.99908 8.54329 2.74035 9.07027 2.63552C9.59725 2.5307 10.1435 2.5845 10.6399 2.79012C11.1363 2.99573 11.5606 3.34393 11.8591 3.79068C12.1576 4.23743 12.3169 4.76267 12.3169 5.29997C12.3169 6.02047 12.0307 6.71146 11.5212 7.22093C11.0117 7.7304 10.3208 8.01661 9.60026 8.01661Z" fill="white" stroke="white" stroke-width="0.3"/>
<path d="M13.1834 9.45059H13.1832L6.01663 9.45059L6.01646 9.45059C4.64671 9.45215 3.33351 9.99697 2.36495 10.9655C1.39639 11.9341 0.851563 13.2473 0.85 14.617V14.6172V24.6505C0.85 24.8803 0.941309 25.1008 1.10384 25.2633L1.20991 25.1572L1.10384 25.2633C1.26637 25.4258 1.48681 25.5171 1.71666 25.5171H17.4832C17.7131 25.5171 17.9335 25.4258 18.096 25.2633C18.2586 25.1008 18.3499 24.8803 18.3499 24.6505V14.6172V14.617C18.3483 13.2473 17.8035 11.9341 16.8349 10.9655C15.8664 9.99697 14.5532 9.45215 13.1834 9.45059ZM8.85365 11.1839H10.3462L9.77956 12.3172H9.42031L8.85365 11.1839ZM2.58332 23.7838V14.6176C2.58609 14.0217 2.74389 13.4368 3.04121 12.9204C3.30655 12.4595 3.67485 12.0674 4.11629 11.774L7.72131 23.7838H2.58332ZM7.982 13.3221L7.41491 16.7425L5.75305 11.2051C5.84246 11.1938 5.92507 11.1839 6.01663 11.1839H6.91292L7.982 13.3221ZM10.6574 20.5056L9.67464 23.7838H9.52523L8.54247 20.5056L9.59993 14.1677L10.6574 20.5056ZM11.2179 13.3221L12.287 11.1839H13.1832C13.2748 11.1839 13.3574 11.1938 13.4468 11.2051L11.785 16.7425L11.2179 13.3221ZM16.6165 23.7838H11.4786L15.0836 11.774C15.525 12.0674 15.8933 12.4595 16.1587 12.9204C16.456 13.4368 16.6138 14.0218 16.6165 14.6177C16.6165 14.6178 16.6165 14.6178 16.6165 14.6179L16.6165 23.7838Z" fill="white" stroke="white" stroke-width="0.3"/>
<path d="M38.9837 28.0829H38.9835L31.8169 28.0829L31.8168 28.0829C30.447 28.0845 29.1338 28.6293 28.1652 29.5979C27.1967 30.5664 26.6519 31.8796 26.6503 33.2494V33.2495V43.2828C26.6503 43.5126 26.7416 43.7331 26.9041 43.8956L27.0099 43.7898L26.9041 43.8956C27.0667 44.0581 27.2871 44.1495 27.517 44.1495H43.2835C43.5134 44.1495 43.7338 44.0581 43.8963 43.8956C44.0589 43.7331 44.1502 43.5126 44.1502 43.2828V33.2495V33.2494C44.1486 31.8796 43.6038 30.5664 42.6352 29.5979C41.6667 28.6293 40.3535 28.0845 38.9837 28.0829ZM34.6539 29.8162H36.1465L35.5799 30.9496H35.2206L34.6539 29.8162ZM28.3836 42.4161V33.2499C28.3864 32.654 28.5442 32.0691 28.8415 31.5527C29.1068 31.0919 29.4751 30.6997 29.9166 30.4064L33.5216 42.4161H28.3836ZM33.7823 31.9544L33.2152 35.3749L31.5533 29.8374C31.6427 29.8261 31.7254 29.8162 31.8169 29.8162H32.7132L33.7823 31.9544ZM36.4577 39.138L35.4749 42.4161H35.3255L34.3428 39.138L35.4002 32.8L36.4577 39.138ZM37.0182 31.9544L38.0872 29.8162H38.9835C39.0751 29.8162 39.1577 29.8261 39.2471 29.8374L37.5853 35.3749L37.0182 31.9544ZM42.4168 42.4161H37.2789L40.8839 30.4064C41.3253 30.6997 41.6936 31.0919 41.959 31.5527C42.2563 32.0691 42.4141 32.6541 42.4168 33.25C42.4168 33.2501 42.4168 33.2501 42.4168 33.2502L42.4168 42.4161Z" fill="white" stroke="white" stroke-width="0.3"/>
<path d="M39.85 23.9329V23.9328C39.85 23.0527 39.589 22.1923 39.1001 21.4605C38.6111 20.7287 37.9161 20.1584 37.103 19.8215C36.2899 19.4847 35.3951 19.3966 34.5319 19.5683C33.6687 19.74 32.8758 20.1638 32.2535 20.7862C31.6311 21.4085 31.2073 22.2014 31.0356 23.0646C30.8639 23.9278 30.952 24.8226 31.2888 25.6357C31.6256 26.4488 32.196 27.1438 32.9278 27.6328C33.6596 28.1218 34.5199 28.3827 35.4001 28.3827H35.4002C36.58 28.3816 37.7112 27.9124 38.5454 27.0781C39.3797 26.2439 39.8489 25.1127 39.85 23.9329ZM35.4001 26.6494C34.8628 26.6494 34.3375 26.4901 33.8908 26.1916C33.444 25.8931 33.0958 25.4688 32.8902 24.9724C32.6846 24.476 32.6308 23.9298 32.7356 23.4028C32.8404 22.8758 33.0992 22.3918 33.4791 22.0118C33.859 21.6319 34.3431 21.3732 34.8701 21.2683C35.3971 21.1635 35.9433 21.2173 36.4397 21.4229C36.9361 21.6285 37.3604 21.9767 37.6589 22.4235C37.9574 22.8702 38.1167 23.3955 38.1167 23.9328C38.1167 24.6533 37.8305 25.3443 37.321 25.8537C36.8116 26.3632 36.1206 26.6494 35.4001 26.6494Z" fill="white" stroke="white" stroke-width="0.3"/>
<path d="M23.1839 40.2536L23.1864 40.2535C23.4144 40.2487 23.6353 40.3326 23.8026 40.4875C23.9699 40.6424 24.0705 40.8562 24.0832 41.0838L24.0834 41.0865C24.0877 41.2003 24.0695 41.3138 24.0299 41.4205C23.9903 41.5273 23.9301 41.6252 23.8527 41.7086C23.7753 41.7921 23.6822 41.8595 23.5787 41.9069C23.4753 41.9544 23.3636 41.981 23.2499 41.9853M23.1839 40.2536L5.75822 32.1882C7.43156 35.0928 9.83367 37.5125 12.729 39.2073C15.6928 40.9421 19.066 41.8543 22.5002 41.8497V41.9997C22.5002 41.9997 22.5003 41.9997 22.5004 41.9997C22.7513 41.9997 23.0005 41.9954 23.2499 41.9853M23.1839 40.2536C22.9575 40.2621 22.7295 40.2664 22.5002 40.2664L22.4999 40.2664C19.2693 40.271 16.0989 39.3922 13.3316 37.725C10.6723 36.1229 8.48249 33.8513 6.9792 31.1398M23.1839 40.2536L6.9792 31.1398M23.2499 41.9853C23.2498 41.9853 23.2497 41.9853 23.2496 41.9853L23.244 41.8354L23.2501 41.9853C23.25 41.9853 23.25 41.9853 23.2499 41.9853ZM4.4413 34.8193C4.48772 34.828 4.53482 34.8326 4.58204 34.8331L4.58204 34.8331L4.58382 34.8331C4.78869 34.8328 4.98684 34.76 5.14311 34.6275C5.29938 34.4951 5.40367 34.3115 5.43748 34.1094L5.43749 34.1094L5.71955 32.4199L3.87843 33.8468M4.4413 34.8193C4.32958 34.8005 4.22264 34.76 4.12652 34.7C4.02995 34.6397 3.94619 34.561 3.88004 34.4684C3.81389 34.3758 3.76663 34.271 3.74097 34.1601C3.7153 34.0492 3.71174 33.9343 3.73047 33.8221M4.4413 34.8193C4.44077 34.8192 4.44025 34.8191 4.43973 34.819L4.46752 34.6716L4.44287 34.8196C4.44234 34.8195 4.44182 34.8194 4.4413 34.8193ZM3.73047 33.8221L3.87843 33.8468M3.73047 33.8221L3.73047 33.8221L3.87843 33.8468M3.73047 33.8221L4.44713 29.5221L4.44716 29.522C4.46784 29.3987 4.51493 29.2814 4.58521 29.1781C4.65548 29.0747 4.74728 28.9878 4.8543 28.9232C4.96131 28.8587 5.08103 28.8181 5.20522 28.8041C5.32941 28.7902 5.45515 28.8033 5.57382 28.8425L5.57418 28.8426L9.87406 30.2759L9.82671 30.4182M3.87843 33.8468L4.59509 29.5468C4.61219 29.4449 4.65113 29.3479 4.70925 29.2624C4.76736 29.1769 4.84326 29.1051 4.93176 29.0517C5.02026 28.9983 5.11925 28.9647 5.22195 28.9532C5.32465 28.9417 5.42862 28.9525 5.52675 28.9849L9.82671 30.4182M9.82671 30.4182C10.0073 30.4783 10.1566 30.6076 10.2418 30.7778C10.327 30.9479 10.3411 31.145 10.2811 31.3255C10.221 31.5061 10.0917 31.6554 9.92153 31.7406C9.75138 31.8258 9.55435 31.84 9.37378 31.7799M9.82671 30.4182L9.37378 31.7799M9.37378 31.7799L6.87358 30.9465C6.9084 31.0112 6.94361 31.0756 6.9792 31.1398M9.37378 31.7799L22.5002 40.4164C19.2422 40.421 16.0449 39.5348 13.2542 37.8535C10.5259 36.2098 8.28766 33.8674 6.76984 31.07L6.9792 31.1398M6.9792 31.1398L9.32635 31.9222L9.32644 31.9222C9.54476 31.9949 9.78298 31.9778 9.9887 31.8748C10.1944 31.7717 10.3508 31.5912 10.4234 31.3729C10.496 31.1546 10.4789 30.9163 10.3759 30.7106C10.2729 30.5049 10.0924 30.3486 9.87415 30.2759L6.9792 31.1398Z" fill="white" stroke="white" stroke-width="0.3"/>
<path d="M30.4778 6.6307C34.3118 8.5604 37.3141 11.8099 38.937 15.774L36.5041 14.5573L36.5041 14.5573C36.2984 14.4545 36.0603 14.4377 35.8422 14.5105C35.6241 14.5833 35.4438 14.7398 35.3411 14.9455C35.2384 15.1512 35.2215 15.3893 35.2944 15.6074C35.3672 15.8255 35.5236 16.0057 35.7293 16.1085L40.0287 18.2582C40.14 18.3143 40.2621 18.3458 40.3866 18.3505C40.5111 18.3552 40.6352 18.3329 40.7504 18.2853C40.8656 18.2377 40.9691 18.1658 41.0539 18.0745C41.1388 17.9832 41.203 17.8747 41.2421 17.7564L42.6753 13.4568L42.6753 13.4567C42.7113 13.3486 42.7256 13.2345 42.7174 13.1208C42.7093 13.0072 42.6788 12.8963 42.6278 12.7944L42.4937 12.8616L42.6278 12.7944C42.5768 12.6926 42.5062 12.6018 42.4201 12.5272C42.334 12.4526 42.234 12.3957 42.1259 12.3597C42.0178 12.3238 41.9037 12.3095 41.7901 12.3176C41.6765 12.3258 41.5656 12.3562 41.4637 12.4072C41.3618 12.4582 41.271 12.5288 41.1964 12.6149L41.3098 12.7131L41.1964 12.6149C41.1218 12.701 41.0649 12.801 41.029 12.9091L40.4063 14.7754C38.5635 10.5125 35.2588 7.04156 31.0811 4.99315C26.7835 2.88596 21.8616 2.43097 17.2505 3.71462L17.2504 3.71465C17.0289 3.77648 16.8411 3.92374 16.7283 4.12405C16.6154 4.32436 16.5867 4.5613 16.6485 4.78275C16.7104 5.0042 16.8576 5.19201 17.0579 5.30489C17.2582 5.41774 17.4951 5.44642 17.7165 5.38463C21.9772 4.19803 26.5272 4.64231 30.4778 6.6307Z" fill="white" stroke="white" stroke-width="0.3"/>
</svg>
