<svg width="45" height="45" viewBox="0 0 45 45" fill="none" xmlns="http://www.w3.org/2000/svg">
<path d="M14.0502 5.30012V5.29997C14.0502 4.41985 13.7892 3.55949 13.3003 2.8277C12.8113 2.09591 12.1163 1.52554 11.3032 1.18874C10.4901 0.851928 9.59532 0.763804 8.73212 0.935507C7.86891 1.10721 7.076 1.53103 6.45366 2.15337C5.83132 2.77571 5.4075 3.56861 5.2358 4.43182C5.0641 5.29503 5.15222 6.18977 5.48903 7.0029C5.82584 7.81602 6.3962 8.51101 7.12799 8.99998C7.85979 9.48895 8.72014 9.74994 9.60026 9.74994H9.60041C10.7802 9.74876 11.9114 9.27956 12.7456 8.44531C13.5799 7.61107 14.049 6.47992 14.0502 5.30012ZM9.60026 8.01661C9.06296 8.01661 8.53772 7.85728 8.09097 7.55878C7.64422 7.26027 7.29603 6.83599 7.09041 6.33958C6.88479 5.84318 6.83099 5.29696 6.93582 4.76998C7.04064 4.243 7.29937 3.75894 7.6793 3.37901C8.05923 2.99908 8.54329 2.74035 9.07027 2.63552C9.59725 2.5307 10.1435 2.5845 10.6399 2.79012C11.1363 2.99573 11.5606 3.34393 11.8591 3.79068C12.1576 4.23743 12.3169 4.76267 12.3169 5.29997C12.3169 6.02047 12.0307 6.71146 11.5212 7.22093C11.0117 7.7304 10.3208 8.01661 9.60026 8.01661Z" fill="#808D9E" stroke="#808D9E" stroke-width="0.3"/>
<path d="M13.1836 9.45059H13.1834L6.01681 9.45059L6.01664 9.45059C4.64689 9.45215 3.33369 9.99697 2.36513 10.9655C1.39657 11.9341 0.851746 13.2473 0.850183 14.617V14.6172V24.6505C0.850183 24.8803 0.941492 25.1008 1.10402 25.2633C1.26655 25.4258 1.48699 25.5171 1.71684 25.5171H17.4834C17.7132 25.5171 17.9337 25.4258 18.0962 25.2633C18.2587 25.1008 18.35 24.8803 18.35 24.6505V14.6172V14.617C18.3485 13.2473 17.8037 11.9341 16.8351 10.9655C15.8665 9.99697 14.5533 9.45215 13.1836 9.45059ZM8.85383 11.1839H10.3464L9.77974 12.3172H9.42049L8.85383 11.1839ZM2.58351 23.7838V14.6176C2.58627 14.0217 2.74407 13.4368 3.04139 12.9204C3.30673 12.4595 3.67503 12.0674 4.11647 11.774L7.72149 23.7838H2.58351ZM7.98218 13.3221L7.41509 16.7425L5.75323 11.2051C5.84264 11.1938 5.92525 11.1839 6.01681 11.1839H6.9131L7.98218 13.3221ZM10.6576 20.5056L9.67482 23.7838H9.52541L8.54265 20.5056L9.60012 14.1677L10.6576 20.5056ZM11.2181 13.3221L12.2871 11.1839H13.1834C13.275 11.1839 13.3576 11.1938 13.447 11.2051L11.7851 16.7425L11.2181 13.3221ZM16.6167 23.7838H11.4787L15.0838 11.774C15.5252 12.0674 15.8935 12.4595 16.1588 12.9204C16.4562 13.4368 16.614 14.0218 16.6167 14.6177C16.6167 14.6178 16.6167 14.6178 16.6167 14.6179L16.6167 23.7838Z" fill="#808D9E" stroke="#808D9E" stroke-width="0.3"/>
<path d="M38.9835 28.0829H38.9833L31.8167 28.0829L31.8166 28.0829C30.4468 28.0845 29.1336 28.6293 28.1651 29.5979C27.1965 30.5664 26.6517 31.8796 26.6501 33.2494V33.2495V43.2828C26.6501 43.5126 26.7414 43.7331 26.9039 43.8956L27.0097 43.7898L26.9039 43.8956C27.0665 44.0581 27.2869 44.1495 27.5168 44.1495H43.2833C43.5132 44.1495 43.7336 44.0581 43.8961 43.8956C44.0587 43.7331 44.15 43.5126 44.15 43.2828V33.2495V33.2494C44.1484 31.8796 43.6036 30.5664 42.635 29.5979C41.6665 28.6293 40.3533 28.0845 38.9835 28.0829ZM34.6538 29.8162H36.1463L35.5797 30.9496H35.2204L34.6538 29.8162ZM28.3834 42.4161V33.2499C28.3862 32.654 28.544 32.0691 28.8413 31.5527C29.1067 31.0919 29.475 30.6997 29.9164 30.4064L33.5214 42.4161H28.3834ZM33.7821 31.9544L33.215 35.3749L31.5532 29.8374C31.6426 29.8261 31.7252 29.8162 31.8167 29.8162H32.713L33.7821 31.9544ZM36.4575 39.138L35.4747 42.4161H35.3253L34.3426 39.138L35.4 32.8L36.4575 39.138ZM37.018 31.9544L38.0871 29.8162H38.9833C39.0749 29.8162 39.1575 29.8261 39.2469 29.8374L37.5851 35.3749L37.018 31.9544ZM42.4167 42.4161H37.2787L40.8837 30.4064C41.3251 30.6997 41.6934 31.0919 41.9588 31.5527C42.2561 32.0691 42.4139 32.6541 42.4167 33.25C42.4167 33.2501 42.4167 33.2501 42.4167 33.2502L42.4167 42.4161Z" fill="#808D9E" stroke="#808D9E" stroke-width="0.3"/>
<path d="M39.8498 23.9329V23.9328C39.8498 23.0527 39.5888 22.1923 39.0998 21.4605C38.6109 20.7287 37.9159 20.1584 37.1028 19.8215C36.2896 19.4847 35.3949 19.3966 34.5317 19.5683C33.6685 19.74 32.8756 20.1638 32.2532 20.7862C31.6309 21.4085 31.2071 22.2014 31.0354 23.0646C30.8637 23.9278 30.9518 24.8226 31.2886 25.6357C31.6254 26.4488 32.1958 27.1438 32.9276 27.6328C33.6593 28.1218 34.5197 28.3827 35.3998 28.3827H35.4C36.5798 28.3816 37.7109 27.9124 38.5452 27.0781C39.3794 26.2439 39.8486 25.1127 39.8498 23.9329ZM35.3998 26.6494C34.8625 26.6494 34.3373 26.4901 33.8905 26.1916C33.4438 25.8931 33.0956 25.4688 32.89 24.9724C32.6844 24.476 32.6306 23.9298 32.7354 23.4028C32.8402 22.8758 33.0989 22.3918 33.4789 22.0118C33.8588 21.6319 34.3429 21.3732 34.8698 21.2683C35.3968 21.1635 35.943 21.2173 36.4394 21.4229C36.9358 21.6285 37.3601 21.9767 37.6586 22.4235C37.9571 22.8702 38.1165 23.3955 38.1165 23.9328C38.1165 24.6533 37.8302 25.3443 37.3208 25.8537C36.8113 26.3632 36.1203 26.6494 35.3998 26.6494Z" fill="#808D9E" stroke="#808D9E" stroke-width="0.3"/>
<path d="M23.1838 40.2536L23.1863 40.2535C23.4142 40.2487 23.6352 40.3326 23.8025 40.4875C23.9698 40.6424 24.0704 40.8562 24.0831 41.0838L24.0833 41.0865C24.0875 41.2003 24.0694 41.3138 24.0298 41.4205C23.9902 41.5273 23.93 41.6252 23.8526 41.7086C23.7751 41.7921 23.682 41.8595 23.5786 41.9069C23.4752 41.9544 23.3634 41.981 23.2498 41.9853M23.1838 40.2536L5.7581 32.1882C7.43143 35.0928 9.83354 37.5125 12.7289 39.2073C15.6927 40.9421 19.0658 41.8543 22.5 41.8497V41.9997C22.5001 41.9997 22.5002 41.9997 22.5002 41.9997C22.7512 41.9997 23.0003 41.9954 23.2498 41.9853M23.1838 40.2536C22.9573 40.2621 22.7294 40.2664 22.5 40.2664L22.4998 40.2664C19.2692 40.271 16.0988 39.3922 13.3315 37.725C10.6721 36.1229 8.48237 33.8513 6.97908 31.1398M23.1838 40.2536L6.97908 31.1398M23.2498 41.9853C23.2497 41.9853 23.2496 41.9853 23.2495 41.9853L23.2439 41.8354L23.25 41.9853C23.2499 41.9853 23.2498 41.9853 23.2498 41.9853ZM4.44117 34.8193C4.4876 34.828 4.5347 34.8326 4.58192 34.8331L4.58192 34.8331L4.58369 34.8331C4.78856 34.8328 4.98671 34.76 5.14299 34.6275C5.29926 34.4951 5.40355 34.3115 5.43736 34.1094L5.43736 34.1094L5.71943 32.4199L3.87831 33.8468M4.44117 34.8193C4.32946 34.8005 4.22252 34.76 4.1264 34.7C4.02983 34.6397 3.94607 34.561 3.87992 34.4684C3.81376 34.3758 3.76651 34.271 3.74084 34.1601C3.71518 34.0492 3.71161 33.9343 3.73035 33.8221M4.44117 34.8193C4.44065 34.8192 4.44013 34.8191 4.43961 34.819L4.4674 34.6716L4.44275 34.8196C4.44222 34.8195 4.4417 34.8194 4.44117 34.8193ZM3.73035 33.8221L3.87831 33.8468M3.73035 33.8221L3.73035 33.8221L3.87831 33.8468M3.73035 33.8221L4.44701 29.5221L4.44703 29.522C4.46772 29.3987 4.51481 29.2814 4.58509 29.1781C4.65536 29.0747 4.74716 28.9878 4.85417 28.9232C4.96119 28.8587 5.0809 28.8181 5.2051 28.8041C5.32929 28.7902 5.45503 28.8033 5.57369 28.8425L5.57406 28.8426L9.87394 30.2759L9.82659 30.4182M3.87831 33.8468L4.59497 29.5468C4.61207 29.4449 4.65101 29.3479 4.70912 29.2624C4.76724 29.1769 4.84314 29.1051 4.93164 29.0517C5.02014 28.9983 5.11913 28.9647 5.22183 28.9532C5.32453 28.9417 5.4285 28.9525 5.52663 28.9849L9.82659 30.4182M9.82659 30.4182C10.0072 30.4783 10.1565 30.6076 10.2417 30.7778C10.3269 30.9479 10.341 31.145 10.281 31.3255C10.2209 31.5061 10.0916 31.6554 9.92141 31.7406C9.75126 31.8258 9.55423 31.84 9.37366 31.7799M9.82659 30.4182L9.37366 31.7799M9.37366 31.7799L6.87346 30.9465C6.90828 31.0112 6.94348 31.0756 6.97908 31.1398M9.37366 31.7799L22.5 40.4164C19.242 40.421 16.0448 39.5348 13.2541 37.8535C10.5257 36.2098 8.28754 33.8674 6.76972 31.07L6.97908 31.1398M6.97908 31.1398L9.32623 31.9222L9.32632 31.9222C9.54463 31.9949 9.78286 31.9778 9.98858 31.8748C10.1943 31.7717 10.3507 31.5912 10.4233 31.3729C10.4959 31.1546 10.4788 30.9163 10.3758 30.7106C10.2728 30.5049 10.0923 30.3486 9.87403 30.2759L6.97908 31.1398Z" fill="#808D9E" stroke="#808D9E" stroke-width="0.3"/>
<path d="M30.4779 6.6307C34.3119 8.5604 37.3142 11.8099 38.9371 15.774L36.5042 14.5573L36.5041 14.5573C36.2984 14.4545 36.0603 14.4377 35.8422 14.5105C35.6241 14.5833 35.4439 14.7398 35.3412 14.9455C35.2384 15.1512 35.2216 15.3893 35.2944 15.6074C35.3672 15.8255 35.5237 16.0057 35.7294 16.1085L40.0288 18.2582C40.1401 18.3143 40.2621 18.3458 40.3867 18.3505C40.5112 18.3552 40.6353 18.3329 40.7505 18.2853C40.8656 18.2377 40.9692 18.1658 41.054 18.0745C41.1389 17.9832 41.203 17.8747 41.2421 17.7564L42.6753 13.4568L42.6754 13.4567C42.7113 13.3486 42.7256 13.2345 42.7175 13.1208C42.7093 13.0072 42.6789 12.8963 42.6279 12.7944L42.4938 12.8616L42.6279 12.7944C42.5769 12.6926 42.5063 12.6018 42.4202 12.5272C42.3341 12.4526 42.2341 12.3957 42.126 12.3597C42.0179 12.3238 41.9038 12.3095 41.7902 12.3176C41.6765 12.3258 41.5656 12.3562 41.4638 12.4072C41.3619 12.4582 41.2711 12.5288 41.1965 12.6149L41.3099 12.7131L41.1965 12.6149C41.1219 12.701 41.065 12.801 41.029 12.9091L40.4063 14.7754C38.5636 10.5125 35.2589 7.04156 31.0812 4.99315C26.7836 2.88596 21.8616 2.43097 17.2506 3.71462L17.2505 3.71465C17.029 3.77648 16.8412 3.92374 16.7283 4.12405C16.6154 4.32436 16.5868 4.5613 16.6486 4.78275C16.7104 5.0042 16.8577 5.19201 17.058 5.30489C17.2583 5.41774 17.4952 5.44642 17.7166 5.38463C21.9772 4.19803 26.5272 4.64231 30.4779 6.6307Z" fill="#808D9E" stroke="#808D9E" stroke-width="0.3"/>
</svg>
