<svg width="151" height="47" viewBox="0 0 151 47" fill="none" xmlns="http://www.w3.org/2000/svg">
<path fill-rule="evenodd" clip-rule="evenodd" d="M33.526 41.6965C31.8945 41.7424 29.6426 41.4439 28.103 40.3187C29.3668 41.9491 32.1932 43.4188 34.6749 42.8906C34.3302 42.1098 34.2153 42.1787 33.526 41.6965ZM54 38.275C53.5174 28.8601 48.2323 20.7311 40.5345 16.2763C41.2008 17.9756 41.063 18.343 41.04 20.3867C40.8562 20.6852 40.7413 20.8 40.6723 21.1445C41.063 21.2134 41.017 21.1904 41.4077 21.0756C41.2698 21.3971 40.9021 21.6726 40.6034 21.8793C40.9711 23.3489 41.5915 23.2112 42.3498 24.4741C42.9702 25.4845 42.2579 26.2882 41.1779 26.7475C41.2468 27.4593 41.2009 27.3445 41.6604 27.9186L41.7064 28.0793C41.4077 28.6994 41.4536 28.6305 40.9251 28.929L40.6034 29.1357L41.086 29.4571C41.3157 29.7557 41.2238 29.9853 41.017 30.2149C40.2357 30.4905 40.1438 30.7431 40.0979 31.5009C40.0979 31.5698 40.0749 31.6386 40.0749 31.7075C39.937 32.7638 39.2247 34.3483 38.1447 34.3483C34.56 34.3253 33.4111 33.5216 33.2732 36.6217C33.2502 37.1498 33.503 39.6987 33.5489 40.5024C31.8255 40.8009 30.5617 40.5484 29.5277 40.0432C30.217 40.1121 31.0213 40.0661 31.9404 39.9054C31.9174 39.1017 31.8026 36.6217 31.8255 36.0935C31.9634 33.0164 33.1123 33.8201 36.697 33.8201C37.846 33.8201 38.4664 33.2461 38.5583 32.052C38.6272 31.2942 38.6732 30.6512 39.4545 30.3757C39.6613 30.146 39.7532 29.9164 39.5234 29.6179C39.0179 29.572 38.3974 29.1816 37.8689 29.1127C38.3745 28.9749 38.8111 29.1586 39.3626 29.0897C39.8911 28.7682 39.8221 28.8371 40.1438 28.2401L40.0979 28.0793C39.6613 27.5053 39.6843 27.643 39.6153 26.9082C40.6953 26.449 40.9481 26.2193 40.8102 25.0482C39.6613 24.1067 39.4085 23.923 39.0638 22.4534C39.3626 22.2467 39.7532 21.9711 39.8681 21.6497C39.5004 21.7645 39.5234 21.7874 39.1328 21.7185C39.2247 21.3741 39.3166 21.2593 39.5004 20.9608C39.5464 18.8711 39.6613 18.5496 38.9719 16.7355C31.7566 19.3763 23.4843 15.9548 17.6017 19.0319C24.1966 14.4163 32.7906 19.4222 39.0868 15.197V15.174V15.1281V15.0822V15.0592V15.0363V15.0133V14.9903V14.9444V14.8985V14.8755V14.8526V14.8296V14.8066V14.7837V14.7607V14.7148V14.6689V14.6459V14.6229V14.6V14.577V14.554V14.5081V14.4622V14.4392V14.4163V14.3933V14.3703V14.3244V14.2785V14.2555V14.2326V14.2096V14.1866V14.1637V14.1177V14.0718V14.0259V14.0029V13.98V13.957V13.934V13.8881C33.4111 15.9778 24.3574 12.0511 16.8434 16.9652C17.1881 19.2615 17.4409 19.4222 14.9362 22.9356C12.0409 26.9771 13.5345 31.5697 17.9004 34.1646C16.6596 34.2105 15.2579 34.1187 14.1779 33.4298C18.6587 37.3794 24.2196 34.9913 26.3336 40.8469C22.9328 36.0016 16.5217 39.2165 13.8791 33.2231L13.3966 32.5572C14.2698 32.9705 15.2349 33.269 16.2 33.292C11.3745 30.4905 10.2485 26.403 13.6723 21.6497C15.166 19.583 15.4417 19.1007 15.074 16.9192C14.8443 16.5978 14.5915 16.3222 14.2928 16.1155C5.97447 20.4785 0.528511 28.7223 0.0459574 38.275C0.0229787 37.8157 0 37.3565 0 36.8972C0 27.8956 4.38894 19.9504 11.1447 15.0363C10.2026 14.7607 9.26043 14.4392 8.45617 13.7963C8.27234 13.36 8.13447 12.9237 8.08851 12.5333C7.81277 10.3059 9.2834 8.12435 11.3515 7.18286C11.8111 6.97619 13.3047 6.76952 13.7643 6.70063C14.3617 6.05766 15.097 5.20802 16.4068 5.00136C15.7864 5.48358 14.8213 6.63174 14.4996 7.36656C12.7762 7.41249 11.9949 7.75694 10.8689 9.29547C10.2945 10.0992 9.92681 11.0636 9.99574 12.074C10.0187 12.4874 10.1106 12.9007 10.2715 13.314C10.8689 13.7733 11.6043 14.0259 12.3626 14.1866H12.3855H12.4315L12.4774 14.2096H12.5004H12.5464L12.5923 14.2326H12.6383L12.6843 14.2555H12.7302L12.7762 14.2785H12.8221H12.8681H12.914H12.96H13.006H13.0519H13.0979H13.1438H13.1898H13.2357H13.2587H13.3047H13.3506H13.3736H13.4196H13.4655H13.4885H13.5345H13.5574H13.5804L13.6264 14.3014H13.6494H13.6723L13.7183 14.3244H13.7413H13.7643L13.8102 14.3474H13.8332H13.8562L13.9021 14.3703H13.9251H13.9481L13.994 14.3933H14.017H14.063L14.1089 14.4163H14.1549H14.1779L14.2238 14.4392L14.2698 14.4622L14.4766 14.6689L14.5226 14.6918L14.5915 14.7148L14.6374 14.7377H14.6604L14.7294 14.7607H14.7523L14.7983 14.7837L14.8672 14.8066L14.8902 14.8296L14.9132 14.8526L14.9591 14.8755C15.0051 14.8985 15.0511 14.9214 15.097 14.9444L15.143 14.9674L15.1889 14.9903L15.2349 15.0133L15.2809 15.0363L15.3268 15.0592L15.3498 15.0822L15.3957 15.1052L15.4417 15.1281L15.4877 15.1511L15.5336 15.174L15.5796 15.197C15.7404 15.3118 15.9013 15.4496 16.0392 15.6103C16.8204 15.174 17.7396 14.8526 18.7506 14.6C17.5557 14.0029 15.8783 13.9111 16.3149 11.2933C17.303 13.934 18.5438 12.8088 19.3021 14.4622C23.6221 13.5437 29.4587 13.8422 33.8936 13.5207C35.4332 12.1199 35.594 11.2473 36.2374 8.72139C36.766 11.0177 36.9038 12.097 34.514 13.4518C36.1685 13.2911 37.5932 13.0385 38.6043 12.5562C40.5574 10.191 41.4077 8.26213 40.7413 4.9095C38.4434 2.728 38.5353 2.5443 35.1345 3.02652C34.1464 2.13096 32.6757 1.53392 31.274 1.16651C27.5974 0.179089 24.1966 1.30428 22.1745 2.9806C24.9319 0.179089 27.6204 -0.46388 31.4349 0.293904C33.1583 0.615389 35.3643 1.28132 36.72 2.49837C40.1208 2.01614 40.0289 2.19985 42.3268 4.38135C43.0162 7.84879 42.074 9.80066 40.006 12.2577C40.0519 12.694 40.1208 13.0614 40.1898 13.4059C48.4162 18.0444 53.977 26.8393 53.977 36.9431L54 38.275Z" fill="white"/>
<path d="M72.2381 9.19928C70.1287 9.19928 69.0947 11.1892 69.0947 15.169V16.7443C69.0947 18.6099 69.3842 20.1023 69.9219 21.1802C70.4596 22.258 71.2868 22.7969 72.3622 22.7969C73.8511 22.7969 75.216 21.3874 76.4569 18.527H76.8291L76.705 22.9628H76.4569C76.3741 22.797 76.2914 22.714 76.2501 22.6726C76.1673 22.6311 76.0846 22.5897 75.9605 22.5897C75.8364 22.5897 75.3401 22.6726 74.5129 22.8799C73.6443 23.0871 72.8171 23.1701 71.9072 23.1701C69.7151 23.1701 68.0193 22.5897 66.8199 21.4289C65.6204 20.2681 65 18.4855 65 16.1639C65 13.8424 65.6204 12.0183 66.9026 10.7332C68.1434 9.44802 69.8392 8.82617 71.9899 8.82617C72.8171 8.82617 73.603 8.90908 74.3888 9.11636C75.1747 9.32365 75.6296 9.40656 75.7537 9.40656C75.8778 9.40656 76.0019 9.3651 76.0433 9.32365C76.126 9.28219 76.1673 9.15782 76.2501 9.03345H76.4569L76.6223 13.3449H76.2501C75.6296 12.0183 75.0092 10.9819 74.3888 10.2771C73.8098 9.53093 73.0653 9.19928 72.2381 9.19928Z" fill="white"/>
<path d="M79.5583 21.8886C78.6897 21.0595 78.2761 19.8158 78.2761 18.2404C78.2761 16.6651 78.7311 15.4214 79.641 14.5923C80.5509 13.7217 81.8745 13.3071 83.5289 13.3071C85.1833 13.3071 86.4655 13.7217 87.2513 14.5094C88.0786 15.297 88.4922 16.4993 88.4922 18.1161C88.4922 21.5155 86.7964 23.2152 83.3635 23.2152C81.709 23.1323 80.4269 22.7177 79.5583 21.8886ZM84.6456 19.0281V17.3284C84.6456 16.0432 84.5629 15.0897 84.4388 14.5094C84.3148 13.929 83.9839 13.6388 83.4462 13.6388C83.1567 13.6388 82.9085 13.7217 82.7431 13.8875C82.5776 14.0533 82.4122 14.3435 82.3295 14.7166C82.2054 15.297 82.164 16.2091 82.164 17.4528V18.9866C82.164 20.4376 82.2054 21.3082 82.2881 21.5984C82.3708 21.8886 82.4535 22.1373 82.5776 22.3031C82.7431 22.6348 83.0326 22.8006 83.4462 22.8006C83.9839 22.8006 84.3148 22.5104 84.4802 21.8886C84.5629 21.474 84.6456 20.5205 84.6456 19.0281Z" fill="white"/>
<path d="M90.5605 21.8886C89.6919 21.0595 89.2783 19.8158 89.2783 18.2404C89.2783 16.6651 89.7333 15.4214 90.6432 14.5923C91.5531 13.7217 92.8767 13.3071 94.5311 13.3071C96.1855 13.3071 97.4677 13.7217 98.2535 14.5094C99.0808 15.297 99.4944 16.4993 99.4944 18.1161C99.4944 21.5155 97.7986 23.2152 94.3657 23.2152C92.6699 23.1323 91.3877 22.7177 90.5605 21.8886ZM95.6065 19.0281V17.3284C95.6065 16.0432 95.5238 15.0897 95.3997 14.5094C95.2756 13.929 94.9447 13.6388 94.407 13.6388C94.1175 13.6388 93.8693 13.7217 93.7039 13.8875C93.5384 14.0533 93.373 14.3435 93.2903 14.7166C93.1662 15.297 93.1248 16.2091 93.1248 17.4528V18.9866C93.1248 20.4376 93.1662 21.3082 93.2489 21.5984C93.3316 21.8886 93.4144 22.1373 93.5385 22.3031C93.7039 22.6348 93.9934 22.8006 94.407 22.8006C94.9447 22.8006 95.2756 22.5104 95.441 21.8886C95.5651 21.474 95.6065 20.5205 95.6065 19.0281Z" fill="white"/>
<path d="M106.693 22.9657V22.5926H107.603L105.328 17.991L104.956 18.0739V22.5926H105.866V22.9657H100.075V22.5926H101.192V8.37311H99.9924V8H104.956V17.6593L105.287 17.535L109.836 13.8039H107.892V13.4308H111.863V13.8039H110.457L108.058 15.8352L111.573 22.5926H112.318V22.9657H106.693Z" fill="white"/>
<path d="M116.082 8H121.045V22.5926H122.162V22.9657H116.165V22.5926H117.281V8.37311H116.082V8Z" fill="white"/>
<path d="M122.492 13.4737H127.456V22.5941H128.572V22.9672H122.575V22.5941H123.692V13.8468H122.492V13.4737ZM125.553 12.1056C124.85 12.1056 124.312 11.9398 124.023 11.5667C123.733 11.1936 123.568 10.779 123.568 10.2401C123.568 9.70117 123.733 9.2866 124.064 8.91349C124.395 8.58184 124.891 8.41602 125.553 8.41602C126.215 8.41602 126.753 8.58184 127.083 8.87204C127.414 9.20369 127.621 9.61825 127.621 10.1986C127.621 10.779 127.456 11.235 127.125 11.5667C126.794 11.9398 126.256 12.1056 125.553 12.1056Z" fill="white"/>
<path d="M135.565 22.9657V22.5926H136.475L134.2 17.991L133.828 18.0739V22.5926H134.737V22.9657H128.947V22.5926H130.064V8.37311H128.864V8H133.828V17.6593L134.158 17.535L138.708 13.8039H136.805V13.4308H140.776V13.8039H139.37L136.971 15.8352L140.487 22.5926H141.231V22.9657H135.565Z" fill="white"/>
<path d="M142.388 21.8027C141.519 20.9321 141.064 19.6884 141.064 18.1131C141.064 16.5377 141.561 15.3355 142.512 14.5064C143.505 13.6773 144.746 13.2627 146.235 13.2627C149.295 13.2627 150.743 14.7966 150.66 17.8229H144.952V18.6106C144.952 19.8957 145.118 20.8907 145.449 21.554C145.78 22.2173 146.359 22.5489 147.227 22.5489C148.799 22.5489 149.833 21.7198 150.288 20.0615L150.66 20.103C150.412 21.0565 149.957 21.8027 149.295 22.3416C148.633 22.8806 147.641 23.1293 146.276 23.1293C144.58 23.1293 143.257 22.7147 142.388 21.8027ZM145.035 17.4083H147.103V16.4134C147.103 15.3355 147.02 14.5893 146.896 14.2162C146.772 13.8431 146.524 13.6358 146.11 13.6358C145.738 13.6358 145.449 13.8431 145.242 14.2577C145.076 14.6722 144.952 15.377 144.952 16.4134V17.4083H145.035Z" fill="white"/>
<path d="M71.7458 26.9461H76.6264V28.7701C77.0814 27.4021 78.0326 26.7388 79.563 26.7388C81.0933 26.7388 82.0033 27.4435 82.3341 28.8945C82.7891 27.4435 83.7818 26.7388 85.3121 26.7388C87.2974 26.7388 88.29 27.8581 88.29 30.0553V36.0664H89.4068V36.4395H83.7818V36.0664H84.4849V29.5993C84.4849 28.6043 84.4022 27.9825 84.2367 27.8166C84.154 27.7337 84.0299 27.6923 83.9058 27.6923C83.5336 27.6923 83.1613 27.941 82.8718 28.4799C82.5823 28.9774 82.4169 29.6407 82.4169 30.4698V36.0664H83.1613V36.4395H77.9499V36.0664H78.6531V29.5993C78.6531 28.6043 78.5703 27.9825 78.4049 27.8166C78.3222 27.7337 78.1981 27.6923 78.074 27.6923C77.7018 27.6923 77.3709 27.9825 77.04 28.5214C76.7505 29.1018 76.585 29.7651 76.585 30.5528V36.0664H77.3295V36.4395H71.7458V36.0664H72.8626V27.3192H71.7458V26.9461Z" fill="white"/>
<path d="M88.5792 27.317V26.9438H94.4524V27.317H93.377L95.5691 33.95L97.9267 27.317H96.5618V26.9438H99.4157V27.317H98.3816L94.6178 38.0541C94.1629 39.2978 93.6665 40.1684 93.1289 40.6659C92.5912 41.1634 91.888 41.4121 91.1022 41.4121C90.3163 41.4121 89.6959 41.2463 89.241 40.8732C88.786 40.5001 88.5378 40.044 88.5378 39.5051C88.5378 38.9662 88.7033 38.5102 88.9928 38.22C89.2823 37.9298 89.6959 37.7639 90.1509 37.7639C91.2676 37.7639 91.8467 38.22 91.8467 39.132C91.8467 39.3393 91.8053 39.588 91.7226 39.8368H91.0195C90.8954 40.127 90.8954 40.3757 90.9781 40.583C91.0608 40.7903 91.2263 40.8732 91.5158 40.8732C92.0535 40.8732 92.5498 40.6244 93.0048 40.0855C93.4184 39.5466 93.832 38.7174 94.2456 37.6396L94.7006 36.3959H92.9221L89.4478 27.2755H88.5792V27.317Z" fill="white"/>
<path d="M101.811 26.9461H106.692V28.7701C107.147 27.4021 108.098 26.7388 109.628 26.7388C111.159 26.7388 112.069 27.4435 112.4 28.8945C112.855 27.4435 113.847 26.7388 115.378 26.7388C117.363 26.7388 118.355 27.8581 118.355 30.0553V36.0664H119.472V36.4395H113.889V36.0664H114.592V29.5993C114.592 28.6043 114.509 27.9825 114.344 27.8166C114.261 27.7337 114.137 27.6923 114.013 27.6923C113.64 27.6923 113.268 27.941 112.979 28.4799C112.689 28.9774 112.524 29.6407 112.524 30.4698V36.0664H113.268V36.4395H108.057V36.0664H108.76V29.5993C108.76 28.6043 108.677 27.9825 108.512 27.8166C108.429 27.7337 108.305 27.6923 108.181 27.6923C107.809 27.6923 107.478 27.9825 107.147 28.5214C106.816 29.0603 106.692 29.7651 106.692 30.5528V36.0664H107.436V36.4395H101.853V36.0664H102.969V27.3192H101.853V26.9461H101.811Z" fill="white"/>
<path d="M121.211 35.3593C120.342 34.5302 119.928 33.2865 119.928 31.7111C119.928 30.1358 120.383 28.8921 121.293 28.063C122.203 27.1924 123.527 26.7778 125.181 26.7778C126.836 26.7778 128.118 27.1924 128.904 27.9801C129.731 28.7677 130.145 29.97 130.145 31.5868C130.145 34.9862 128.449 36.6859 125.016 36.6859C123.361 36.6444 122.079 36.2299 121.211 35.3593ZM126.298 32.4988V30.7991C126.298 29.5139 126.215 28.5605 126.091 27.9801C125.967 27.3997 125.636 27.1095 125.099 27.1095C124.809 27.1095 124.561 27.1924 124.395 27.3582C124.23 27.524 124.065 27.8142 123.982 28.1873C123.858 28.7677 123.816 29.6798 123.816 30.9235V32.4574C123.816 33.9083 123.858 34.7789 123.94 35.0691C124.023 35.3593 124.106 35.608 124.23 35.7739C124.395 36.1055 124.685 36.2713 125.099 36.2713C125.636 36.2713 125.967 35.9811 126.133 35.3593C126.215 34.9447 126.298 33.9912 126.298 32.4988Z" fill="white"/>
<path d="M130.72 26.9461H135.601V28.7701C136.056 27.4021 137.007 26.7388 138.537 26.7388C140.068 26.7388 140.978 27.4435 141.309 28.8945C141.763 27.4435 142.756 26.7388 144.286 26.7388C146.272 26.7388 147.264 27.8581 147.264 30.0553V36.0664H148.381V36.4395H142.797V36.0664H143.501V29.5993C143.501 28.6043 143.418 27.9825 143.252 27.8166C143.17 27.7337 143.046 27.6923 142.922 27.6923C142.549 27.6923 142.177 27.941 141.888 28.4799C141.598 28.9774 141.433 29.6407 141.433 30.4698V36.0664H142.177V36.4395H136.966V36.0664H137.669V29.5993C137.669 28.6043 137.586 27.9825 137.421 27.8166C137.338 27.7337 137.214 27.6923 137.09 27.6923C136.717 27.6923 136.387 27.9825 136.056 28.5214C135.766 29.1018 135.601 29.7651 135.601 30.5528V36.0664H136.345V36.4395H130.762V36.0664H131.878V27.3192H130.762V26.9461H130.72Z" fill="white"/>
<path d="M99.4166 45.5572C99.1271 45.5572 98.8789 45.5157 98.6307 45.3913C98.4239 45.267 98.2171 45.1011 98.0517 44.8524H98.0103L97.9276 45.4742H97.4727V39.6289H98.0517V41.7846H98.0931C98.1758 41.6188 98.2999 41.4944 98.4653 41.4115C98.5894 41.3286 98.7548 41.2457 98.9203 41.2042C99.0857 41.1628 99.2512 41.1213 99.4166 41.1213C99.7475 41.1213 100.078 41.2043 100.327 41.3701C100.575 41.5359 100.781 41.7846 100.906 42.0748C101.03 42.4065 101.112 42.821 101.112 43.3185C101.112 43.8574 101.03 44.272 100.906 44.6037C100.781 44.9353 100.575 45.184 100.327 45.3499C100.12 45.4742 99.7888 45.5572 99.4166 45.5572ZM99.3339 45.0597C99.582 45.0597 99.7888 45.0182 99.9543 44.8939C100.12 44.811 100.285 44.6037 100.368 44.3964C100.451 44.1891 100.533 43.8575 100.533 43.4429V43.2356C100.533 42.8625 100.492 42.5308 100.409 42.3236C100.327 42.0748 100.202 41.909 99.9956 41.7846C99.8302 41.6603 99.582 41.6188 99.2925 41.6188C99.1271 41.6188 99.003 41.6603 98.8376 41.7017C98.6721 41.7432 98.548 41.8261 98.4653 41.9505C98.3412 42.0748 98.2585 42.2406 98.1758 42.4479C98.0931 42.6552 98.0517 42.9454 98.0517 43.2771V43.4429C98.0517 43.7745 98.0931 44.1062 98.1758 44.3135C98.2585 44.5622 98.3826 44.728 98.5894 44.8524C98.7962 44.9768 99.0444 45.0597 99.3339 45.0597Z" fill="#00B087"/>
<path d="M102.892 46.9714C102.768 46.9714 102.685 46.9714 102.602 46.9714C102.52 46.9714 102.478 46.93 102.396 46.93V46.4739H102.727C102.851 46.4739 103.016 46.4325 103.14 46.391C103.264 46.3496 103.388 46.2667 103.512 46.1008C103.636 45.9765 103.719 45.7692 103.843 45.479L102.147 41.209H102.768L103.636 43.4891C103.678 43.572 103.719 43.7378 103.761 43.8622C103.802 44.028 103.885 44.1524 103.926 44.3182C103.967 44.484 104.05 44.6084 104.05 44.7328H104.091C104.133 44.6499 104.133 44.567 104.174 44.4426C104.215 44.3182 104.257 44.1938 104.298 44.1109C104.34 43.9866 104.381 43.8622 104.422 43.7793C104.464 43.6549 104.505 43.572 104.505 43.4891L105.249 41.209H105.829L104.34 45.3961C104.257 45.6448 104.174 45.8521 104.091 46.0179C104.009 46.2252 103.885 46.3496 103.761 46.5154C103.636 46.6398 103.512 46.7641 103.347 46.847C103.306 46.93 103.099 46.9714 102.892 46.9714Z" fill="#00B087"/>
<path d="M109.717 45.4775V39.9224H110.379V45.4775H109.717Z" fill="#00B087"/>
<path d="M112.279 45.4759V41.2059H112.734L112.776 41.8692H112.817C112.941 41.6619 113.065 41.5376 113.231 41.4132C113.396 41.2888 113.561 41.2059 113.727 41.1645C113.892 41.123 114.099 41.0815 114.306 41.0815C114.595 41.0815 114.802 41.123 115.009 41.2059C115.216 41.2888 115.381 41.4546 115.505 41.6205C115.629 41.8278 115.671 42.0765 115.671 42.4496V45.4345H115.092V42.5325C115.092 42.3252 115.05 42.2009 115.009 42.0765C114.968 41.9521 114.885 41.8692 114.802 41.7863C114.72 41.7034 114.595 41.6619 114.513 41.6619C114.389 41.6205 114.265 41.6205 114.141 41.6205C113.934 41.6205 113.727 41.6619 113.52 41.7863C113.313 41.9107 113.148 42.035 113.065 42.2423C112.982 42.4496 112.9 42.6569 112.9 42.9471V45.4759H112.279Z" fill="#00B087"/>
<path d="M118.855 45.5596C118.483 45.5596 118.193 45.4766 117.945 45.3108C117.697 45.145 117.49 44.8963 117.366 44.5646C117.242 44.233 117.159 43.8184 117.159 43.2795C117.159 42.782 117.242 42.3674 117.366 42.0358C117.49 41.7041 117.697 41.4554 117.945 41.331C118.193 41.1652 118.483 41.0823 118.855 41.0823C119.062 41.0823 119.227 41.1237 119.393 41.1652C119.558 41.2066 119.724 41.2896 119.848 41.3725C119.972 41.4554 120.096 41.5798 120.179 41.7456H120.22V39.5898H120.799V45.4352H120.344L120.261 44.8133H120.22C120.055 45.0621 119.889 45.2279 119.641 45.3523C119.393 45.4766 119.145 45.5596 118.855 45.5596ZM118.938 45.0621C119.227 45.0621 119.476 44.9792 119.641 44.8548C119.806 44.7304 119.972 44.5231 120.055 44.3159C120.137 44.0671 120.179 43.7769 120.179 43.4453V43.2795C120.179 42.9478 120.137 42.6576 120.096 42.4503C120.013 42.243 119.931 42.0772 119.806 41.9529C119.682 41.8285 119.558 41.7456 119.434 41.7041C119.31 41.6627 119.145 41.6212 118.979 41.6212C118.69 41.6212 118.483 41.6627 118.276 41.787C118.111 41.9114 117.945 42.0772 117.863 42.326C117.78 42.5747 117.738 42.8649 117.738 43.238V43.4453C117.738 43.8599 117.78 44.15 117.904 44.3988C118.028 44.6475 118.152 44.8133 118.318 44.8963C118.483 45.0206 118.69 45.0621 118.938 45.0621Z" fill="#00B087"/>
<path d="M122.539 40.3337V39.6289H123.118V40.3337H122.539ZM122.539 45.4742V41.2042H123.118V45.4742H122.539Z" fill="#00B087"/>
<path d="M126.51 45.5588C126.096 45.5588 125.765 45.4759 125.476 45.3101C125.186 45.1443 124.979 44.8955 124.814 44.5639C124.648 44.2322 124.607 43.8177 124.607 43.3202C124.607 42.8227 124.69 42.4081 124.814 42.0765C124.979 41.7448 125.186 41.4961 125.476 41.3303C125.765 41.1645 126.137 41.0815 126.551 41.0815C126.964 41.0815 127.295 41.1645 127.544 41.3303C127.833 41.4961 128.04 41.7034 128.164 41.9936C128.288 42.2838 128.371 42.6569 128.371 43.0714V43.4446H125.186C125.186 43.8177 125.227 44.1079 125.351 44.3566C125.476 44.6053 125.6 44.7712 125.806 44.8541C126.013 44.9784 126.22 45.0199 126.51 45.0199C126.716 45.0199 126.882 44.9784 127.047 44.937C127.213 44.8955 127.337 44.8126 127.419 44.7297C127.502 44.6468 127.585 44.5224 127.668 44.398C127.709 44.2737 127.75 44.1493 127.75 43.9835H128.329C128.329 44.1908 128.288 44.398 128.205 44.5639C128.123 44.7297 127.998 44.8955 127.874 45.0614C127.709 45.1857 127.544 45.3101 127.295 45.393C127.089 45.5174 126.84 45.5588 126.51 45.5588ZM125.227 43.03H127.792C127.792 42.7398 127.75 42.5325 127.709 42.3667C127.626 42.2009 127.544 42.035 127.461 41.9107C127.337 41.7863 127.213 41.7034 127.089 41.6619C126.923 41.6205 126.758 41.579 126.592 41.579C126.344 41.579 126.096 41.6205 125.889 41.7448C125.682 41.8278 125.558 41.9936 125.434 42.2009C125.31 42.4082 125.227 42.6983 125.227 43.03Z" fill="#00B087"/>
<path d="M131.017 45.476L129.404 41.206H130.024L130.851 43.4446C130.893 43.569 130.934 43.6934 130.976 43.8178C131.017 43.9836 131.1 44.1079 131.141 44.2738C131.182 44.4396 131.224 44.564 131.265 44.6883H131.306C131.348 44.564 131.389 44.4396 131.43 44.2738C131.472 44.1079 131.555 43.9836 131.596 43.8178C131.637 43.6519 131.679 43.5276 131.72 43.4032L132.547 41.1646H133.168L131.555 45.4345H131.017V45.476Z" fill="#00B087"/>
<path d="M136.145 45.5588C135.731 45.5588 135.359 45.4759 135.069 45.3101C134.78 45.1443 134.573 44.8955 134.407 44.5639C134.242 44.2322 134.201 43.8177 134.201 43.3202C134.201 42.8227 134.283 42.4081 134.407 42.0765C134.573 41.7448 134.78 41.4961 135.069 41.3303C135.359 41.1645 135.731 41.0815 136.145 41.0815C136.558 41.0815 136.93 41.1645 137.22 41.3303C137.51 41.4961 137.716 41.7448 137.882 42.0765C138.047 42.4081 138.089 42.8227 138.089 43.3202C138.089 43.8177 138.006 44.2322 137.882 44.5639C137.716 44.8955 137.51 45.1443 137.22 45.3101C136.93 45.4759 136.6 45.5588 136.145 45.5588ZM136.145 45.0614C136.434 45.0614 136.682 45.0199 136.889 44.8955C137.096 44.7712 137.22 44.6053 137.344 44.3566C137.468 44.1079 137.51 43.8177 137.51 43.4031V43.1958C137.51 42.8227 137.468 42.4911 137.344 42.2423C137.22 41.9936 137.096 41.8278 136.889 41.7034C136.682 41.579 136.434 41.5376 136.145 41.5376C135.855 41.5376 135.607 41.579 135.4 41.7034C135.193 41.8278 135.069 41.9936 134.945 42.2423C134.821 42.4911 134.78 42.7813 134.78 43.1958V43.4031C134.78 43.7762 134.821 44.1079 134.945 44.3566C135.069 44.6053 135.193 44.7712 135.4 44.8955C135.607 45.0199 135.855 45.0614 136.145 45.0614Z" fill="#00B087"/>
<path d="M139.58 45.4789V41.2089H140.076L140.118 41.9136H140.159C140.2 41.7893 140.242 41.6649 140.325 41.5405C140.407 41.4162 140.49 41.3333 140.655 41.2503C140.78 41.1674 140.945 41.126 141.152 41.126C141.234 41.126 141.317 41.126 141.359 41.126C141.4 41.126 141.483 41.1674 141.524 41.1674V41.7064H141.276C141.069 41.7064 140.904 41.7478 140.78 41.7893C140.655 41.8722 140.531 41.9551 140.449 42.0795C140.366 42.2038 140.283 42.3282 140.242 42.494C140.2 42.6599 140.2 42.8257 140.2 42.9915V45.4374H139.58V45.4789Z" fill="#00B087"/>
<path d="M144.377 45.5588C143.964 45.5588 143.633 45.4759 143.343 45.3101C143.054 45.1443 142.847 44.8955 142.681 44.5639C142.516 44.2322 142.475 43.8177 142.475 43.3202C142.475 42.8227 142.557 42.4081 142.681 42.0765C142.847 41.7448 143.054 41.4961 143.343 41.3303C143.633 41.1645 144.005 41.0815 144.419 41.0815C144.832 41.0815 145.163 41.1645 145.411 41.3303C145.701 41.4961 145.908 41.7034 146.032 41.9936C146.156 42.2838 146.238 42.6569 146.238 43.0714V43.4446H143.054C143.054 43.8177 143.095 44.1079 143.219 44.3566C143.343 44.6053 143.467 44.7712 143.674 44.8541C143.881 44.9784 144.088 45.0199 144.377 45.0199C144.584 45.0199 144.749 44.9784 144.915 44.937C145.08 44.8955 145.204 44.8126 145.287 44.7297C145.37 44.6468 145.453 44.5224 145.535 44.398C145.577 44.2737 145.618 44.1493 145.618 43.9835H146.197C146.197 44.1908 146.156 44.398 146.073 44.5639C145.99 44.7297 145.866 44.8955 145.742 45.0614C145.577 45.1857 145.411 45.3101 145.163 45.393C144.956 45.5174 144.667 45.5588 144.377 45.5588ZM143.054 43.03H145.618C145.618 42.7398 145.577 42.5325 145.535 42.3667C145.453 42.2009 145.37 42.035 145.287 41.9107C145.163 41.7863 145.039 41.7034 144.915 41.6619C144.749 41.6205 144.584 41.579 144.419 41.579C144.17 41.579 143.922 41.6205 143.715 41.7448C143.509 41.8278 143.385 41.9936 143.26 42.2009C143.136 42.4082 143.095 42.6983 143.054 43.03Z" fill="#00B087"/>
</svg>
