<svg width="34" height="34" viewBox="0 0 34 34" fill="none" xmlns="http://www.w3.org/2000/svg">
<path d="M2 26C2 23.69 2 22.535 2.5205 21.686C2.8115 21.2105 3.2105 20.8115 3.686 20.5205C4.5335 20 5.69 20 8 20C10.31 20 11.465 20 12.314 20.5205C12.7895 20.8115 13.1885 21.2105 13.4795 21.686C14 22.5335 14 23.69 14 26C14 28.31 14 29.465 13.4795 30.3155C13.1885 30.7895 12.7895 31.1885 12.314 31.4795C11.4665 32 10.31 32 8 32C5.69 32 4.535 32 3.686 31.4795C3.21103 31.189 2.81162 30.7901 2.5205 30.3155C2 29.465 2 28.31 2 26ZM20 26C20 23.69 20 22.535 20.5205 21.686C20.8115 21.2105 21.2105 20.8115 21.686 20.5205C22.5335 20 23.69 20 26 20C28.31 20 29.465 20 30.3155 20.5205C30.7895 20.8115 31.1885 21.2105 31.4795 21.686C32 22.5335 32 23.69 32 26C32 28.31 32 29.465 31.4795 30.3155C31.1884 30.7896 30.7896 31.1884 30.3155 31.4795C29.465 32 28.31 32 26 32C23.69 32 22.535 32 21.686 31.4795C21.211 31.189 20.8116 30.7901 20.5205 30.3155C20 29.465 20 28.31 20 26ZM2 8C2 5.69 2 4.535 2.5205 3.686C2.8115 3.2105 3.2105 2.8115 3.686 2.5205C4.5335 2 5.69 2 8 2C10.31 2 11.465 2 12.314 2.5205C12.7895 2.8115 13.1885 3.2105 13.4795 3.686C14 4.5335 14 5.69 14 8C14 10.31 14 11.465 13.4795 12.314C13.1885 12.7895 12.7895 13.1885 12.314 13.4795C11.4665 14 10.31 14 8 14C5.69 14 4.535 14 3.686 13.4795C3.21085 13.1886 2.81143 12.7891 2.5205 12.314C2 11.4665 2 10.31 2 8ZM20 8C20 5.69 20 4.535 20.5205 3.686C20.8115 3.2105 21.2105 2.8115 21.686 2.5205C22.5335 2 23.69 2 26 2C28.31 2 29.465 2 30.3155 2.5205C30.7895 2.8115 31.1885 3.2105 31.4795 3.686C32 4.5335 32 5.69 32 8C32 10.31 32 11.465 31.4795 12.314C31.1885 12.7895 30.7895 13.1885 30.3155 13.4795C29.465 14 28.31 14 26 14C23.69 14 22.535 14 21.686 13.4795C21.2109 13.1886 20.8114 12.7891 20.5205 12.314C20 11.4665 20 10.31 20 8Z" stroke="white" stroke-width="3" stroke-linecap="round" stroke-linejoin="round"/>
</svg>
