<svg width="44" height="44" viewBox="0 0 44 44" fill="none" xmlns="http://www.w3.org/2000/svg">
<path d="M2 34C2 30.92 2 29.38 2.694 28.248C3.082 27.614 3.614 27.082 4.248 26.694C5.378 26 6.92 26 10 26C13.08 26 14.62 26 15.752 26.694C16.386 27.082 16.918 27.614 17.306 28.248C18 29.378 18 30.92 18 34C18 37.08 18 38.62 17.306 39.754C16.918 40.386 16.386 40.918 15.752 41.306C14.622 42 13.08 42 10 42C6.92 42 5.38 42 4.248 41.306C3.6147 40.9187 3.08216 40.3868 2.694 39.754C2 38.62 2 37.08 2 34ZM26 34C26 30.92 26 29.38 26.694 28.248C27.082 27.614 27.614 27.082 28.248 26.694C29.378 26 30.92 26 34 26C37.08 26 38.62 26 39.754 26.694C40.386 27.082 40.918 27.614 41.306 28.248C42 29.378 42 30.92 42 34C42 37.08 42 38.62 41.306 39.754C40.9178 40.3861 40.3861 40.9178 39.754 41.306C38.62 42 37.08 42 34 42C30.92 42 29.38 42 28.248 41.306C27.6147 40.9187 27.0822 40.3868 26.694 39.754C26 38.62 26 37.08 26 34ZM2 10C2 6.92 2 5.38 2.694 4.248C3.082 3.614 3.614 3.082 4.248 2.694C5.378 2 6.92 2 10 2C13.08 2 14.62 2 15.752 2.694C16.386 3.082 16.918 3.614 17.306 4.248C18 5.378 18 6.92 18 10C18 13.08 18 14.62 17.306 15.752C16.918 16.386 16.386 16.918 15.752 17.306C14.622 18 13.08 18 10 18C6.92 18 5.38 18 4.248 17.306C3.61447 16.9181 3.08191 16.3855 2.694 15.752C2 14.622 2 13.08 2 10ZM26 10C26 6.92 26 5.38 26.694 4.248C27.082 3.614 27.614 3.082 28.248 2.694C29.378 2 30.92 2 34 2C37.08 2 38.62 2 39.754 2.694C40.386 3.082 40.918 3.614 41.306 4.248C42 5.378 42 6.92 42 10C42 13.08 42 14.62 41.306 15.752C40.918 16.386 40.386 16.918 39.754 17.306C38.62 18 37.08 18 34 18C30.92 18 29.38 18 28.248 17.306C27.6145 16.9181 27.0819 16.3855 26.694 15.752C26 14.622 26 13.08 26 10Z" stroke="#808D9E" stroke-width="3" stroke-linecap="round" stroke-linejoin="round"/>
</svg>
