<svg width="29" height="30" viewBox="0 0 29 30" fill="none" xmlns="http://www.w3.org/2000/svg">
<path d="M10.0018 9.0708C8.15507 10.0022 6.63405 11.4689 5.60387 13.3115C5.43632 13.6106 5.53544 13.9927 5.82391 14.1654C5.91952 14.2228 6.02335 14.2497 6.12598 14.2497C6.33487 14.2497 6.53781 14.138 6.64934 13.9378C7.55916 12.3112 8.90199 11.0166 10.5316 10.1939C10.8313 10.0425 10.9558 9.66834 10.8095 9.35832C10.6644 9.04824 10.3039 8.91822 10.0018 9.0708Z" fill="#808D9E"/>
<path d="M28.3958 18H27.1569C26.8648 11.6304 22.1746 6.44367 16.1587 5.62541C16.2564 5.39525 16.3125 5.14207 16.3125 4.875C16.3125 3.84105 15.4995 3 14.5 3C13.5005 3 12.6875 3.84105 12.6875 4.875C12.6875 5.14213 12.7436 5.39525 12.8413 5.62541C6.82542 6.44367 2.13524 11.6304 1.84309 18H0.604186C0.270232 18 0 18.2796 0 18.625V19.2513C0 20.1918 0.266664 21.1031 0.771729 21.8868C1.22072 22.5838 1.9724 23 2.78247 23H26.2175C27.027 23 27.7793 22.5838 28.2288 21.8862C28.7333 21.1024 29 20.1918 29 19.2513V18.625C29 18.2796 28.7298 18 28.3958 18ZM14.5 4.25004C14.8333 4.25004 15.1042 4.53018 15.1042 4.87506C15.1042 5.21988 14.8334 5.50008 14.5 5.50008C14.1666 5.50008 13.8958 5.21994 13.8958 4.87506C13.8958 4.53018 14.1667 4.25004 14.5 4.25004ZM14.5 6.75C20.6257 6.75 25.6314 11.7434 25.9485 18H3.05146C3.36864 11.7434 8.37432 6.75 14.5 6.75ZM27.7917 19.2513C27.7917 19.944 27.5952 20.616 27.2229 21.1934C26.9981 21.5419 26.6223 21.7501 26.2175 21.7501H2.78247C2.37772 21.7501 2.00128 21.5419 1.77653 21.1928C1.4048 20.6154 1.20837 19.944 1.20837 19.2513V19.2501H27.7917V19.2513Z" fill="#808D9E"/>
</svg>
