<svg width="15" height="16" viewBox="0 0 15 16" fill="none" xmlns="http://www.w3.org/2000/svg">
<path d="M7.84011 0.959961C7.74994 0.959969 7.66346 0.993686 7.5997 1.0537C7.53594 1.11371 7.50012 1.19509 7.50011 1.27996V2.46309L6.19722 4.30246L6.19655 4.30309C6.19234 4.30921 6.18836 4.31546 6.1846 4.32184C6.1823 4.32575 6.18008 4.32971 6.17796 4.33371C6.17728 4.33537 6.17662 4.33704 6.17597 4.33871C6.16639 4.35653 6.15861 4.37515 6.15272 4.39434C6.15227 4.396 6.15182 4.39767 6.1514 4.39934C6.14935 4.40657 6.14758 4.41386 6.14608 4.42121C6.14407 4.43072 6.14252 4.44032 6.14144 4.44996C6.14143 4.45079 6.14143 4.45163 6.14144 4.45246C6.14057 4.46161 6.14013 4.47078 6.14011 4.47996C6.1401 4.48121 6.1401 4.48246 6.14011 4.48371V6.39996H0.700107C0.609937 6.39997 0.523461 6.43369 0.459701 6.4937C0.395941 6.55371 0.360116 6.63509 0.360107 6.71996V14.4C0.360116 14.4848 0.395941 14.5662 0.459701 14.6262C0.523461 14.6862 0.609937 14.72 0.700107 14.72H3.85374C4.11381 14.9992 4.42721 15.2222 4.77214 15.3687C5.64977 15.7414 6.7848 15.6566 7.68272 15.0062C7.73155 15.0292 7.78553 15.0408 7.84011 15.04H12.2601H14.3001C14.3903 15.04 14.4768 15.0062 14.5405 14.9462C14.6043 14.8862 14.6401 14.8048 14.6401 14.72V4.47996C14.6401 4.43028 14.6278 4.38128 14.6042 4.33684L13.6201 2.48434V1.27996C13.6201 1.19509 13.5843 1.11371 13.5205 1.0537C13.4568 0.993686 13.3703 0.959969 13.2801 0.959961H7.84011ZM8.18011 1.59996H12.9401V2.23996H8.18011V1.59996ZM8.02206 2.87996H12.7303L12.0503 4.15996H7.11562L8.02206 2.87996ZM13.2801 3.27559L13.9601 4.55559V14.4H12.6001V4.55559L13.2801 3.27559ZM6.82011 4.79996H11.9201V14.4H8.30894C8.46464 14.2031 8.60633 13.9833 8.72597 13.7337C9.14145 12.8671 9.28276 11.8613 9.15561 10.9743C9.02847 10.0874 8.62583 9.28132 7.84808 8.95121C7.65365 8.86864 7.4513 8.82279 7.24444 8.80746C7.10455 8.7971 6.96272 8.80294 6.82011 8.81934V6.71996V4.79996ZM1.04011 7.03996H6.14011V8.95996C6.14017 8.96872 6.14061 8.97748 6.14144 8.98621C5.87848 9.08301 5.61931 9.21179 5.37179 9.36746C4.58116 9.86471 3.87277 10.6302 3.45729 11.4968C2.99698 12.457 3.05376 13.3651 3.40948 14.08H1.04011V7.03996ZM7.18202 9.44871C7.3217 9.45699 7.45175 9.48538 7.56851 9.53496C8.03549 9.73317 8.37295 10.3015 8.48159 11.0593C8.59024 11.8172 8.46305 12.7267 8.1064 13.4706C7.40011 14.9441 5.99939 15.188 5.05171 14.7856C4.10401 14.3831 3.37061 13.2331 4.07687 11.76C4.43353 11.016 5.07402 10.3249 5.74964 9.89996C6.08745 9.6875 6.42519 9.5466 6.7371 9.48371C6.89305 9.45227 7.04235 9.44043 7.18202 9.44871Z" fill="white" stroke="white" stroke-width="0.5"/>
</svg>
