<svg width="24" height="22" viewBox="0 0 24 22" fill="none" xmlns="http://www.w3.org/2000/svg">
<path d="M23.9607 17.3637L22.7812 13.9879C23.5796 12.5919 24 11.0103 24 9.39186C24 4.28104 19.842 0.123047 14.7312 0.123047C11.9325 0.123047 9.34232 1.34812 7.58113 3.49406C3.27337 4.2898 0 8.07383 0 12.6084C0 14.2268 0.420422 15.8085 1.2188 17.2045L0.039375 20.5802C-0.0437812 20.8183 0.00689062 21.0826 0.172172 21.2731C0.337453 21.4635 0.592078 21.5507 0.839484 21.5019L4.78561 20.7218C6.15304 21.4785 7.69706 21.8771 9.26882 21.8771C12.1358 21.8771 14.7027 20.5686 16.4042 18.5176C17.3745 18.3314 18.3547 17.9785 19.214 17.5052L23.1605 18.2853C23.4079 18.3345 23.6625 18.2469 23.8278 18.0564C23.9931 17.8661 24.0438 17.6017 23.9607 17.3637ZM9.26882 20.4709C7.8577 20.4709 6.47339 20.0924 5.26556 19.3763C5.15629 19.3115 5.03231 19.278 4.90696 19.278C4.8615 19.278 4.81579 19.2824 4.77061 19.2913L1.77215 19.8841L2.65467 17.3583C2.72484 17.1575 2.70033 16.9356 2.58792 16.755C1.8149 15.5123 1.40625 14.0784 1.40625 12.6084C1.40625 8.273 4.9334 4.74585 9.26882 4.74585C13.6042 4.74585 17.1314 8.273 17.1314 12.6084C17.1314 16.9438 13.6042 20.4709 9.26882 20.4709ZM21.3453 14.1418L22.2278 16.6675L19.2294 16.0748C19.0596 16.0411 18.8833 16.0715 18.7344 16.1597C18.372 16.3746 17.9799 16.5638 17.573 16.7222C18.1899 15.4819 18.5376 14.0851 18.5376 12.6084C18.5376 7.64 14.6081 3.57257 9.6937 3.34973C11.0888 2.17898 12.8543 1.52929 14.7312 1.52929C19.0666 1.52925 22.5937 5.05644 22.5937 9.39186C22.5937 10.8619 22.1851 12.2958 21.4121 13.5385C21.2997 13.7191 21.2751 13.941 21.3453 14.1418Z" fill="#25AE35"/>
<path d="M3.89728 10.8945C3.50897 10.8945 3.19415 11.2093 3.19415 11.5977V13.6198C3.19415 14.0081 3.50897 14.3229 3.89728 14.3229C4.28559 14.3229 4.6004 14.0081 4.6004 13.6198V11.5977C4.6004 11.2093 4.28564 10.8945 3.89728 10.8945Z" fill="#25AE35"/>
<path d="M6.58301 9.41699C6.1947 9.41699 5.87988 9.7318 5.87988 10.1201V15.0964C5.87988 15.4847 6.1947 15.7995 6.58301 15.7995C6.97132 15.7995 7.28613 15.4847 7.28613 15.0964V10.1201C7.28613 9.7318 6.97132 9.41699 6.58301 9.41699Z" fill="#25AE35"/>
<path d="M9.26874 10.8945C8.88043 10.8945 8.56561 11.2093 8.56561 11.5977V13.6198C8.56561 14.0081 8.88043 14.3229 9.26874 14.3229C9.65705 14.3229 9.97186 14.0081 9.97186 13.6198V11.5977C9.97186 11.2093 9.65705 10.8945 9.26874 10.8945Z" fill="#25AE35"/>
<path d="M11.9547 10.1152C11.5664 10.1152 11.2516 10.43 11.2516 10.8184V14.399C11.2516 14.7873 11.5664 15.1021 11.9547 15.1021C12.343 15.1021 12.6578 14.7873 12.6578 14.399V10.8184C12.6578 10.43 12.343 10.1152 11.9547 10.1152Z" fill="#25AE35"/>
<path d="M14.6404 11.4541C14.2521 11.4541 13.9373 11.7689 13.9373 12.1572V13.0592C13.9373 13.4476 14.2521 13.7624 14.6404 13.7624C15.0288 13.7624 15.3436 13.4476 15.3436 13.0592V12.1572C15.3436 11.7689 15.0288 11.4541 14.6404 11.4541Z" fill="#25AE35"/>
</svg>
