<svg width="10" height="10" viewBox="0 0 10 10" fill="none" xmlns="http://www.w3.org/2000/svg">
<path d="M4.99998 0C3.00301 0 1.37836 1.62465 1.37836 3.6216C1.37836 6.09988 4.61935 9.73814 4.75734 9.89182C4.88695 10.0362 5.11324 10.0359 5.24261 9.89182C5.3806 9.73814 8.6216 6.09988 8.6216 3.6216C8.62156 1.62465 6.99693 0 4.99998 0ZM4.99998 5.44373C3.99525 5.44373 3.17787 4.62633 3.17787 3.6216C3.17787 2.61687 3.99527 1.79949 4.99998 1.79949C6.00468 1.79949 6.82207 2.61689 6.82207 3.62162C6.82207 4.62635 6.00468 5.44373 4.99998 5.44373Z" fill="#00B087"/>
</svg>
