<svg width="86" height="117" viewBox="0 0 86 117" fill="none" xmlns="http://www.w3.org/2000/svg">
<path fill-rule="evenodd" clip-rule="evenodd" d="M53.9098 63.0296C51.4323 63.099 48.0128 62.6478 45.6749 60.9469C47.594 63.4114 51.886 65.633 55.6545 64.8346C55.1311 63.6544 54.9566 63.7586 53.9098 63.0296ZM85 57.8576C84.2672 43.6257 76.2417 31.3378 64.5523 24.6037C65.5643 27.1723 65.3549 27.7277 65.32 30.8171C65.0409 31.2683 64.8664 31.4419 64.7617 31.9626C65.3549 32.0667 65.2851 32.032 65.8783 31.8584C65.6689 32.3444 65.1106 32.7609 64.657 33.0733C65.2153 35.2949 66.1574 35.0866 67.3089 36.9958C68.2511 38.5231 67.1694 39.738 65.5294 40.4322C65.634 41.5083 65.5643 41.3347 66.2621 42.2025L66.3319 42.4455C65.8783 43.3827 65.9481 43.2786 65.1455 43.7299L64.657 44.0423L65.3898 44.5282C65.7387 44.9795 65.5991 45.3266 65.2851 45.6737C64.0987 46.0903 63.9591 46.4721 63.8894 47.6176C63.8894 47.7217 63.8545 47.8259 63.8545 47.93C63.6451 49.5267 62.5634 51.9218 60.9234 51.9218C55.48 51.8871 53.7353 50.6722 53.526 55.3583C53.4911 56.1567 53.8749 60.0097 53.9447 61.2246C51.3277 61.6759 49.4085 61.294 47.8383 60.5304C48.8851 60.6345 50.1064 60.5651 51.5021 60.3221C51.4672 59.1072 51.2928 55.3583 51.3277 54.5599C51.537 49.9086 53.2817 51.1235 58.7251 51.1235C60.4698 51.1235 61.4119 50.2557 61.5515 48.4507C61.6562 47.3052 61.726 46.3332 62.9123 45.9167C63.2264 45.5696 63.366 45.2225 63.017 44.7712C62.2494 44.7018 61.3072 44.1117 60.5047 44.0076C61.2723 43.7993 61.9353 44.077 62.7728 43.9728C63.5753 43.4869 63.4706 43.591 63.9591 42.6885L63.8894 42.4455C63.2264 41.5777 63.2613 41.786 63.1566 40.6752C64.7966 39.981 65.1804 39.6339 64.9711 37.8636C63.2264 36.4404 62.8426 36.1627 62.3191 33.9411C62.7728 33.6287 63.366 33.2122 63.5404 32.7262C62.9821 32.8998 63.017 32.9345 62.4238 32.8304C62.5634 32.3097 62.703 32.1361 62.9821 31.6849C63.0519 28.5261 63.2264 28.0401 62.1796 25.2979C51.223 29.2898 38.6613 24.1177 29.7285 28.7691C39.743 21.792 52.7932 29.3592 62.354 22.9722V22.9375V22.8681V22.7987V22.7639V22.7292V22.6945V22.6598V22.5904V22.521V22.4863V22.4515V22.4168V22.3821V22.3474V22.3127V22.2433V22.1738V22.1391V22.1044V22.0697V22.035V22.0003V21.9309V21.8614V21.8267V21.792V21.7573V21.7226V21.6532V21.5837V21.549V21.5143V21.4796V21.4449V21.4102V21.3408V21.2713V21.2019V21.1672V21.1325V21.0978V21.0631V20.9936C53.7353 24.1524 39.9872 18.2167 28.577 25.645C29.1004 29.1162 29.4843 29.3592 25.6809 34.6701C21.2843 40.7794 23.5523 47.7217 30.1821 51.6441C28.2979 51.7136 26.1694 51.5747 24.5294 50.5334C31.3336 56.5038 39.7779 52.8938 42.9881 61.7453C37.8238 54.4211 28.0885 59.2807 24.0757 50.221L23.343 49.2143C24.6689 49.8391 26.1345 50.2904 27.6 50.3251C20.2723 46.0903 18.5626 39.9116 23.7617 32.7262C26.0298 29.6022 26.4485 28.8732 25.8902 25.5756C25.5413 25.0896 25.1574 24.6731 24.7038 24.3607C12.0723 30.9559 3.80255 43.4175 3.06979 57.8576C3.03489 57.1633 3 56.4691 3 55.7748C3 42.1678 9.66468 30.1576 19.9234 22.7292C18.4928 22.3127 17.0621 21.8267 15.8409 20.8548C15.5617 20.1953 15.3523 19.5358 15.2826 18.9457C14.8638 15.5786 17.097 12.281 20.2374 10.8578C20.9353 10.5454 23.2034 10.233 23.9013 10.1289C24.8085 9.15693 25.9251 7.87259 27.914 7.56019C26.9719 8.28914 25.5064 10.0247 25.0179 11.1355C22.4009 11.2049 21.2145 11.7256 19.5047 14.0513C18.6323 15.2662 18.074 16.7241 18.1787 18.2514C18.2136 18.8762 18.3532 19.501 18.5974 20.1259C19.5047 20.8201 20.6213 21.2019 21.7728 21.4449H21.8077H21.8774L21.9472 21.4796H21.9821H22.0519L22.1217 21.5143H22.1915L22.2613 21.549H22.3311L22.4009 21.5837H22.4706H22.5404H22.6102H22.68H22.7498H22.8196H22.8894H22.9591H23.0289H23.0987H23.1336H23.2034H23.2732H23.3081H23.3779H23.4477H23.4826H23.5523H23.5872H23.6221L23.6919 21.6185H23.7268H23.7617L23.8315 21.6532H23.8664H23.9013L23.9711 21.6879H24.006H24.0409L24.1106 21.7226H24.1455H24.1804L24.2502 21.7573H24.2851H24.3549L24.4247 21.792H24.4945H24.5294L24.5991 21.8267L24.6689 21.8614L24.983 22.1738L25.0528 22.2086L25.1574 22.2433L25.2272 22.278H25.2621L25.3668 22.3127H25.4017L25.4715 22.3474L25.5762 22.3821L25.6111 22.4168L25.646 22.4515L25.7157 22.4863C25.7855 22.521 25.8553 22.5557 25.9251 22.5904L25.9949 22.6251L26.0647 22.6598L26.1345 22.6945L26.2043 22.7292L26.274 22.7639L26.3089 22.7987L26.3787 22.8334L26.4485 22.8681L26.5183 22.9028L26.5881 22.9375L26.6579 22.9722C26.9021 23.1458 27.1464 23.354 27.3557 23.597C28.5421 22.9375 29.9379 22.4515 31.4732 22.0697C29.6587 21.1672 27.1115 21.0284 27.7745 17.0712C29.2749 21.0631 31.1591 19.3622 32.3106 21.8614C38.8706 20.473 47.7336 20.9242 54.4681 20.4383C56.806 18.3208 57.0502 17.0018 58.0272 13.1835C58.8298 16.6547 59.0391 18.2861 55.4102 20.3341C57.9226 20.0911 60.086 19.7093 61.6213 18.9804C64.5872 15.4051 65.8783 12.4893 64.8664 7.42134C61.377 4.12372 61.5166 3.84603 56.3523 4.57498C54.8519 3.22122 52.6187 2.31871 50.4902 1.76332C44.9072 0.270715 39.743 1.97159 36.6723 4.50555C40.8596 0.270715 44.9421 -0.701214 50.7345 0.444274C53.3515 0.930239 56.7013 1.93688 58.76 3.7766C63.9243 3.04766 63.7847 3.32535 67.274 6.62297C68.3208 11.8644 66.8902 14.8149 63.7498 18.5291C63.8196 19.1886 63.9243 19.744 64.0289 20.2647C76.5209 27.2765 84.9651 40.5711 84.9651 55.8443L85 57.8576Z" fill="white"/>
<path d="M7.23808 79.1994C5.1287 79.1994 4.09469 81.1893 4.09469 85.1691V86.7445C4.09469 88.61 4.38421 90.1024 4.9219 91.1803C5.45958 92.2581 6.28679 92.7971 7.36217 92.7971C8.85114 92.7971 10.216 91.3876 11.4569 88.5271H11.8291L11.705 92.9629H11.4569C11.3741 92.7971 11.2914 92.7142 11.2501 92.6727C11.1673 92.6312 11.0846 92.5898 10.9605 92.5898C10.8364 92.5898 10.3401 92.6727 9.51291 92.88C8.64434 93.0873 7.81713 93.1702 6.9072 93.1702C4.7151 93.1702 3.01932 92.5898 1.81986 91.429C0.620407 90.2682 0 88.4856 0 86.1641C0 83.8425 0.620407 82.0184 1.90258 80.7333C3.1434 79.4481 4.83918 78.8263 6.98992 78.8263C7.81713 78.8263 8.60298 78.9092 9.38883 79.1165C10.1747 79.3238 10.6296 79.4067 10.7537 79.4067C10.8778 79.4067 11.0019 79.3652 11.0433 79.3238C11.126 79.2823 11.1673 79.1579 11.2501 79.0336H11.4569L11.6223 83.345H11.2501C10.6296 82.0184 10.0092 80.982 9.38883 80.2773C8.80978 79.5311 8.06529 79.1994 7.23808 79.1994Z" fill="white"/>
<path d="M14.5582 91.8886C13.6896 91.0595 13.276 89.8158 13.276 88.2404C13.276 86.6651 13.731 85.4214 14.6409 84.5923C15.5508 83.7217 16.8744 83.3071 18.5288 83.3071C20.1832 83.3071 21.4654 83.7217 22.2512 84.5094C23.0784 85.297 23.492 86.4993 23.492 88.1161C23.492 91.5155 21.7963 93.2152 18.3633 93.2152C16.7089 93.1323 15.4267 92.7177 14.5582 91.8886ZM19.6455 89.0281V87.3284C19.6455 86.0432 19.5628 85.0897 19.4387 84.5094C19.3146 83.929 18.9837 83.6388 18.4461 83.6388C18.1565 83.6388 17.9084 83.7217 17.7429 83.8875C17.5775 84.0533 17.412 84.3435 17.3293 84.7166C17.2052 85.297 17.1639 86.2091 17.1639 87.4528V88.9866C17.1639 90.4376 17.2052 91.3082 17.288 91.5984C17.3707 91.8886 17.4534 92.1373 17.5775 92.3031C17.7429 92.6348 18.0325 92.8006 18.4461 92.8006C18.9837 92.8006 19.3146 92.5104 19.4801 91.8886C19.5628 91.474 19.6455 90.5205 19.6455 89.0281Z" fill="white"/>
<path d="M25.5606 91.8886C24.692 91.0595 24.2784 89.8158 24.2784 88.2404C24.2784 86.6651 24.7333 85.4214 25.6433 84.5923C26.5532 83.7217 27.8767 83.3071 29.5312 83.3071C31.1856 83.3071 32.4678 83.7217 33.2536 84.5094C34.0808 85.297 34.4944 86.4993 34.4944 88.1161C34.4944 91.5155 32.7986 93.2152 29.3657 93.2152C27.6699 93.1323 26.3878 92.7177 25.5606 91.8886ZM30.6065 89.0281V87.3284C30.6065 86.0432 30.5238 85.0897 30.3997 84.5094C30.2757 83.929 29.9448 83.6388 29.4071 83.6388C29.1176 83.6388 28.8694 83.7217 28.704 83.8875C28.5385 84.0533 28.3731 84.3435 28.2903 84.7166C28.1663 85.297 28.1249 86.2091 28.1249 87.4528V88.9866C28.1249 90.4376 28.1663 91.3082 28.249 91.5984C28.3317 91.8886 28.4144 92.1373 28.5385 92.3031C28.704 92.6348 28.9935 92.8006 29.4071 92.8006C29.9448 92.8006 30.2757 92.5104 30.4411 91.8886C30.5652 91.474 30.6065 90.5205 30.6065 89.0281Z" fill="white"/>
<path d="M41.6928 92.9657V92.5926H42.6027L40.3279 87.991L39.9556 88.0739V92.5926H40.8656V92.9657H35.0751V92.5926H36.1918V78.3731H34.9924V78H39.9556V87.6593L40.2865 87.535L44.8362 83.8039H42.8922V83.4308H46.8628V83.8039H45.4566L43.0577 85.8352L46.5733 92.5926H47.3178V92.9657H41.6928Z" fill="white"/>
<path d="M51.0818 78H56.0451V92.5926H57.1618V92.9657H51.1646V92.5926H52.2813V78.3731H51.0818V78Z" fill="white"/>
<path d="M57.4925 83.4736H62.4558V92.594H63.5725V92.9671H57.5752V92.594H58.6919V83.8467H57.4925V83.4736ZM60.5532 82.1055C59.85 82.1055 59.3124 81.9397 59.0228 81.5666C58.7333 81.1935 58.5679 80.7789 58.5679 80.24C58.5679 79.701 58.7333 79.2865 59.0642 78.9134C59.3951 78.5817 59.8914 78.4159 60.5532 78.4159C61.2149 78.4159 61.7526 78.5817 62.0835 78.8719C62.4144 79.2036 62.6212 79.6181 62.6212 80.1985C62.6212 80.7789 62.4557 81.2349 62.1249 81.5666C61.794 81.9397 61.2563 82.1055 60.5532 82.1055Z" fill="white"/>
<path d="M70.5647 92.9657V92.5926H71.4747L69.1998 87.991L68.8276 88.0739V92.5926H69.7375V92.9657H63.947V92.5926H65.0638V78.3731H63.8643V78H68.8276V87.6593L69.1585 87.535L73.7081 83.8039H71.8055V83.4308H75.7761V83.8039H74.3699L71.971 85.8352L75.4866 92.5926H76.2311V92.9657H70.5647Z" fill="white"/>
<path d="M77.388 91.8027C76.5195 90.9321 76.0645 89.6884 76.0645 88.1131C76.0645 86.5377 76.5608 85.3355 77.5121 84.5064C78.5048 83.6773 79.7456 83.2627 81.2346 83.2627C84.2952 83.2627 85.7429 84.7966 85.6601 87.8229H79.9524V88.6106C79.9524 89.8957 80.1178 90.8907 80.4487 91.554C80.7796 92.2173 81.3587 92.5489 82.2272 92.5489C83.7989 92.5489 84.8329 91.7198 85.2879 90.0615L85.6601 90.103C85.412 91.0565 84.957 91.8027 84.2953 92.3416C83.6335 92.8806 82.6408 93.1293 81.2759 93.1293C79.5802 93.1293 78.2566 92.7147 77.388 91.8027ZM80.0351 87.4083H82.1031V86.4134C82.1031 85.3355 82.0204 84.5893 81.8963 84.2162C81.7723 83.8431 81.5241 83.6358 81.1105 83.6358C80.7382 83.6358 80.4487 83.8431 80.2419 84.2577C80.0765 84.6722 79.9524 85.377 79.9524 86.4134V87.4083H80.0351Z" fill="white"/>
<path d="M6.74579 96.9459H11.6263V98.77C12.0813 97.402 13.0326 96.7386 14.5629 96.7386C16.0933 96.7386 17.0032 97.4434 17.3341 98.8944C17.789 97.4434 18.7817 96.7386 20.312 96.7386C22.2973 96.7386 23.29 97.858 23.29 100.055V106.066H24.4067V106.439H18.7817V106.066H19.4848V99.5991C19.4848 98.6042 19.4021 97.9823 19.2367 97.8165C19.1539 97.7336 19.0299 97.6921 18.9058 97.6921C18.5335 97.6921 18.1613 97.9409 17.8718 98.4798C17.5822 98.9773 17.4168 99.6406 17.4168 100.47V106.066H18.1613V106.439H12.9499V106.066H13.653V99.5991C13.653 98.6042 13.5703 97.9823 13.4048 97.8165C13.3221 97.7336 13.198 97.6921 13.0739 97.6921C12.7017 97.6921 12.3708 97.9823 12.0399 98.5213C11.7504 99.1017 11.585 99.765 11.585 100.553V106.066H12.3295V106.439H6.74579V106.066H7.86252V97.319H6.74579V96.9459Z" fill="white"/>
<path d="M23.5791 97.317V96.9438H29.4523V97.317H28.3769L30.569 103.95L32.9266 97.317H31.5617V96.9438H34.4155V97.317H33.3815L29.6177 108.054C29.1627 109.298 28.6664 110.168 28.1287 110.666C27.591 111.163 26.8879 111.412 26.1021 111.412C25.3162 111.412 24.6958 111.246 24.2408 110.873C23.7859 110.5 23.5377 110.044 23.5377 109.505C23.5377 108.966 23.7032 108.51 23.9927 108.22C24.2822 107.93 24.6958 107.764 25.1508 107.764C26.2675 107.764 26.8466 108.22 26.8466 109.132C26.8466 109.339 26.8052 109.588 26.7225 109.837H26.0193C25.8953 110.127 25.8953 110.376 25.978 110.583C26.0607 110.79 26.2262 110.873 26.5157 110.873C27.0534 110.873 27.5497 110.624 28.0047 110.086C28.4183 109.547 28.8319 108.717 29.2455 107.64L29.7004 106.396H27.9219L24.4477 97.2755H23.5791V97.317Z" fill="white"/>
<path d="M36.8113 96.9459H41.6919V98.77C42.1468 97.402 43.0981 96.7386 44.6285 96.7386C46.1588 96.7386 47.0687 97.4434 47.3996 98.8944C47.8546 97.4434 48.8472 96.7386 50.3776 96.7386C52.3629 96.7386 53.3555 97.858 53.3555 100.055V106.066H54.4723V106.439H48.8886V106.066H49.5917V99.5991C49.5917 98.6042 49.509 97.9823 49.3436 97.8165C49.2608 97.7336 49.1368 97.6921 49.0127 97.6921C48.6404 97.6921 48.2682 97.9409 47.9787 98.4798C47.6891 98.9773 47.5237 99.6406 47.5237 100.47V106.066H48.2682V106.439H43.0568V106.066H43.7599V99.5991C43.7599 98.6042 43.6772 97.9823 43.5117 97.8165C43.429 97.7336 43.3049 97.6921 43.1809 97.6921C42.8086 97.6921 42.4777 97.9823 42.1468 98.5213C41.816 99.0602 41.6919 99.765 41.6919 100.553V106.066H42.4364V106.439H36.8527V106.066H37.9694V97.319H36.8527V96.9459H36.8113Z" fill="white"/>
<path d="M56.2108 105.359C55.3423 104.53 54.9286 103.286 54.9286 101.711C54.9286 100.135 55.3836 98.8917 56.2935 98.0626C57.2035 97.192 58.527 96.7775 60.1814 96.7775C61.8358 96.7775 63.118 97.192 63.9039 97.9797C64.7311 98.7674 65.1447 99.9696 65.1447 101.586C65.1447 104.986 63.4489 106.686 60.016 106.686C58.3616 106.644 57.0794 106.23 56.2108 105.359ZM61.2982 102.498V100.799C61.2982 99.5136 61.2154 98.5601 61.0914 97.9797C60.9673 97.3993 60.6364 97.1091 60.0987 97.1091C59.8092 97.1091 59.561 97.192 59.3956 97.3579C59.2301 97.5237 59.0647 97.8139 58.982 98.187C58.8579 98.7674 58.8165 99.6794 58.8165 100.923V102.457C58.8165 103.908 58.8579 104.779 58.9406 105.069C59.0233 105.359 59.1061 105.608 59.2301 105.773C59.3956 106.105 59.6851 106.271 60.0987 106.271C60.6364 106.271 60.9673 105.981 61.1327 105.359C61.2154 104.944 61.2982 103.991 61.2982 102.498Z" fill="white"/>
<path d="M65.7203 96.9459H70.6008V98.77C71.0558 97.402 72.0071 96.7386 73.5374 96.7386C75.0677 96.7386 75.9777 97.4434 76.3086 98.8944C76.7635 97.4434 77.7562 96.7386 79.2865 96.7386C81.2718 96.7386 82.2645 97.858 82.2645 100.055V106.066H83.3812V106.439H77.7975V106.066H78.5007V99.5991C78.5007 98.6042 78.4179 97.9823 78.2525 97.8165C78.1698 97.7336 78.0457 97.6921 77.9216 97.6921C77.5494 97.6921 77.1771 97.9409 76.8876 98.4798C76.5981 98.9773 76.4326 99.6406 76.4326 100.47V106.066H77.1771V106.439H71.9657V106.066H72.6688V99.5991C72.6688 98.6042 72.5861 97.9823 72.4207 97.8165C72.338 97.7336 72.2139 97.6921 72.0898 97.6921C71.7176 97.6921 71.3867 97.9823 71.0558 98.5213C70.7663 99.1017 70.6008 99.765 70.6008 100.553V106.066H71.3453V106.439H65.7616V106.066H66.8784V97.319H65.7616V96.9459H65.7203Z" fill="white"/>
<path d="M34.4166 115.557C34.1271 115.557 33.8789 115.515 33.6307 115.391C33.4239 115.267 33.2171 115.101 33.0517 114.852H33.0103L32.9276 115.474H32.4727V109.629H33.0517V111.784H33.0931C33.1758 111.619 33.2999 111.494 33.4653 111.411C33.5894 111.328 33.7548 111.245 33.9203 111.204C34.0857 111.163 34.2512 111.121 34.4166 111.121C34.7475 111.121 35.0784 111.204 35.3265 111.37C35.5747 111.536 35.7815 111.784 35.9056 112.075C36.0297 112.406 36.1124 112.821 36.1124 113.318C36.1124 113.857 36.0297 114.272 35.9056 114.603C35.7815 114.935 35.5747 115.184 35.3265 115.35C35.1197 115.474 34.7888 115.557 34.4166 115.557ZM34.3339 115.059C34.582 115.059 34.7888 115.018 34.9543 114.894C35.1197 114.811 35.2852 114.603 35.3679 114.396C35.4506 114.189 35.5333 113.857 35.5333 113.443V113.235C35.5333 112.862 35.492 112.531 35.4092 112.323C35.3265 112.075 35.2024 111.909 34.9956 111.784C34.8302 111.66 34.582 111.619 34.2925 111.619C34.1271 111.619 34.003 111.66 33.8376 111.701C33.6721 111.743 33.548 111.826 33.4653 111.95C33.3412 112.075 33.2585 112.24 33.1758 112.448C33.0931 112.655 33.0517 112.945 33.0517 113.277V113.443C33.0517 113.774 33.0931 114.106 33.1758 114.313C33.2585 114.562 33.3826 114.728 33.5894 114.852C33.7962 114.977 34.0444 115.059 34.3339 115.059Z" fill="#00B087"/>
<path d="M37.892 116.972C37.7679 116.972 37.6852 116.972 37.6025 116.972C37.5198 116.972 37.4784 116.93 37.3957 116.93V116.474H37.7266C37.8507 116.474 38.0161 116.433 38.1402 116.391C38.2643 116.35 38.3883 116.267 38.5124 116.101C38.6365 115.977 38.7192 115.769 38.8433 115.479L37.1475 111.209H37.7679L38.6365 113.489C38.6779 113.572 38.7192 113.738 38.7606 113.862C38.8019 114.028 38.8847 114.153 38.926 114.318C38.9674 114.484 39.0501 114.609 39.0501 114.733H39.0915C39.1328 114.65 39.1328 114.567 39.1742 114.443C39.2155 114.318 39.2569 114.194 39.2983 114.111C39.3396 113.987 39.381 113.862 39.4223 113.779C39.4637 113.655 39.5051 113.572 39.5051 113.489L40.2496 111.209H40.8286L39.3396 115.396C39.2569 115.645 39.1742 115.852 39.0915 116.018C39.0087 116.225 38.8847 116.35 38.7606 116.516C38.6365 116.64 38.5124 116.764 38.347 116.847C38.3056 116.93 38.0988 116.972 37.892 116.972Z" fill="#00B087"/>
<path d="M44.7172 115.478V109.923H45.379V115.478H44.7172Z" fill="#00B087"/>
<path d="M47.2792 115.476V111.206H47.7342L47.7756 111.869H47.8169C47.941 111.662 48.0651 111.538 48.2305 111.413C48.396 111.289 48.5614 111.206 48.7269 111.164C48.8923 111.123 49.0991 111.082 49.3059 111.082C49.5954 111.082 49.8022 111.123 50.009 111.206C50.2158 111.289 50.3813 111.455 50.5053 111.62C50.6294 111.828 50.6708 112.076 50.6708 112.45V115.434H50.0917V112.533C50.0917 112.325 50.0504 112.201 50.009 112.076C49.9677 111.952 49.8849 111.869 49.8022 111.786C49.7195 111.703 49.5954 111.662 49.5127 111.662C49.3886 111.62 49.2645 111.62 49.1405 111.62C48.9337 111.62 48.7269 111.662 48.5201 111.786C48.3132 111.911 48.1478 112.035 48.0651 112.242C47.9824 112.45 47.8996 112.657 47.8996 112.947V115.476H47.2792Z" fill="#00B087"/>
<path d="M53.8551 115.56C53.4828 115.56 53.1933 115.477 52.9452 115.311C52.697 115.145 52.4902 114.896 52.3661 114.565C52.242 114.233 52.1593 113.818 52.1593 113.279C52.1593 112.782 52.242 112.367 52.3661 112.036C52.4902 111.704 52.697 111.455 52.9452 111.331C53.1933 111.165 53.4828 111.082 53.8551 111.082C54.0619 111.082 54.2273 111.124 54.3928 111.165C54.5582 111.207 54.7237 111.29 54.8477 111.372C54.9718 111.455 55.0959 111.58 55.1786 111.746H55.22V109.59H55.799V115.435H55.3441L55.2613 114.813H55.22C55.0545 115.062 54.8891 115.228 54.6409 115.352C54.3928 115.477 54.1446 115.56 53.8551 115.56ZM53.9378 115.062C54.2273 115.062 54.4755 114.979 54.6409 114.855C54.8064 114.73 54.9718 114.523 55.0545 114.316C55.1373 114.067 55.1786 113.777 55.1786 113.445V113.279C55.1786 112.948 55.1373 112.658 55.0959 112.45C55.0132 112.243 54.9305 112.077 54.8064 111.953C54.6823 111.828 54.5582 111.746 54.4341 111.704C54.31 111.663 54.1446 111.621 53.9792 111.621C53.6896 111.621 53.4828 111.663 53.276 111.787C53.1106 111.911 52.9452 112.077 52.8624 112.326C52.7797 112.575 52.7384 112.865 52.7384 113.238V113.445C52.7384 113.86 52.7797 114.15 52.9038 114.399C53.0279 114.648 53.152 114.813 53.3174 114.896C53.4828 115.021 53.6896 115.062 53.9378 115.062Z" fill="#00B087"/>
<path d="M57.5385 110.333V109.629H58.1176V110.333H57.5385ZM57.5385 115.474V111.204H58.1176V115.474H57.5385Z" fill="#00B087"/>
<path d="M61.5096 115.559C61.096 115.559 60.7651 115.476 60.4756 115.31C60.186 115.144 59.9792 114.896 59.8138 114.564C59.6484 114.232 59.607 113.818 59.607 113.32C59.607 112.823 59.6897 112.408 59.8138 112.076C59.9792 111.745 60.186 111.496 60.4756 111.33C60.7651 111.164 61.1373 111.082 61.5509 111.082C61.9645 111.082 62.2954 111.164 62.5436 111.33C62.8331 111.496 63.0399 111.703 63.164 111.994C63.2881 112.284 63.3708 112.657 63.3708 113.071V113.445H60.186C60.186 113.818 60.2274 114.108 60.3515 114.357C60.4756 114.605 60.5997 114.771 60.8065 114.854C61.0133 114.978 61.2201 115.02 61.5096 115.02C61.7164 115.02 61.8818 114.978 62.0473 114.937C62.2127 114.896 62.3368 114.813 62.4195 114.73C62.5022 114.647 62.585 114.522 62.6677 114.398C62.709 114.274 62.7504 114.149 62.7504 113.983H63.3294C63.3294 114.191 63.2881 114.398 63.2054 114.564C63.1226 114.73 62.9986 114.896 62.8745 115.061C62.709 115.186 62.5436 115.31 62.2954 115.393C62.0886 115.517 61.8405 115.559 61.5096 115.559ZM60.2274 113.03H62.7918C62.7918 112.74 62.7504 112.533 62.709 112.367C62.6263 112.201 62.5436 112.035 62.4609 111.911C62.3368 111.786 62.2127 111.703 62.0886 111.662C61.9232 111.62 61.7577 111.579 61.5923 111.579C61.3441 111.579 61.096 111.62 60.8892 111.745C60.6824 111.828 60.5583 111.994 60.4342 112.201C60.3101 112.408 60.2274 112.698 60.2274 113.03Z" fill="#00B087"/>
<path d="M66.0169 115.476L64.4039 111.206H65.0243L65.8515 113.445C65.8928 113.569 65.9342 113.694 65.9756 113.818C66.0169 113.984 66.0996 114.108 66.141 114.274C66.1824 114.44 66.2237 114.564 66.2651 114.689H66.3065C66.3478 114.564 66.3892 114.44 66.4305 114.274C66.4719 114.108 66.5546 113.984 66.596 113.818C66.6373 113.652 66.6787 113.528 66.7201 113.403L67.5473 111.165H68.1677L66.5546 115.435H66.0169V115.476Z" fill="#00B087"/>
<path d="M71.1447 115.559C70.7311 115.559 70.3589 115.476 70.0694 115.31C69.7798 115.144 69.5731 114.896 69.4076 114.564C69.2422 114.232 69.2008 113.818 69.2008 113.32C69.2008 112.823 69.2835 112.408 69.4076 112.076C69.5731 111.745 69.7798 111.496 70.0694 111.33C70.3589 111.164 70.7311 111.082 71.1447 111.082C71.5584 111.082 71.9306 111.164 72.2201 111.33C72.5096 111.496 72.7164 111.745 72.8819 112.076C73.0473 112.408 73.0887 112.823 73.0887 113.32C73.0887 113.818 73.006 114.232 72.8819 114.564C72.7164 114.896 72.5096 115.144 72.2201 115.31C71.9306 115.476 71.5997 115.559 71.1447 115.559ZM71.1447 115.061C71.4343 115.061 71.6824 115.02 71.8892 114.896C72.096 114.771 72.2201 114.605 72.3442 114.357C72.4683 114.108 72.5096 113.818 72.5096 113.403V113.196C72.5096 112.823 72.4683 112.491 72.3442 112.242C72.2201 111.994 72.096 111.828 71.8892 111.703C71.6824 111.579 71.4343 111.538 71.1447 111.538C70.8552 111.538 70.6071 111.579 70.4003 111.703C70.1935 111.828 70.0694 111.994 69.9453 112.242C69.8212 112.491 69.7798 112.781 69.7798 113.196V113.403C69.7798 113.776 69.8212 114.108 69.9453 114.357C70.0694 114.605 70.1935 114.771 70.4003 114.896C70.6071 115.02 70.8552 115.061 71.1447 115.061Z" fill="#00B087"/>
<path d="M74.58 115.479V111.209H75.0763L75.1176 111.914H75.159C75.2004 111.789 75.2417 111.665 75.3244 111.541C75.4072 111.416 75.4899 111.333 75.6553 111.25C75.7794 111.167 75.9448 111.126 76.1516 111.126C76.2344 111.126 76.3171 111.126 76.3585 111.126C76.3998 111.126 76.4825 111.167 76.5239 111.167V111.706H76.2757C76.0689 111.706 75.9035 111.748 75.7794 111.789C75.6553 111.872 75.5312 111.955 75.4485 112.079C75.3658 112.204 75.2831 112.328 75.2417 112.494C75.2004 112.66 75.2004 112.826 75.2004 112.992V115.437H74.58V115.479Z" fill="#00B087"/>
<path d="M79.3773 115.559C78.9637 115.559 78.6328 115.476 78.3433 115.31C78.0538 115.144 77.847 114.896 77.6815 114.564C77.5161 114.232 77.4747 113.818 77.4747 113.32C77.4747 112.823 77.5575 112.408 77.6815 112.076C77.847 111.745 78.0538 111.496 78.3433 111.33C78.6328 111.164 79.0051 111.082 79.4187 111.082C79.8323 111.082 80.1632 111.164 80.4113 111.33C80.7008 111.496 80.9076 111.703 81.0317 111.994C81.1558 112.284 81.2385 112.657 81.2385 113.071V113.445H78.0538C78.0538 113.818 78.0951 114.108 78.2192 114.357C78.3433 114.605 78.4674 114.771 78.6742 114.854C78.881 114.978 79.0878 115.02 79.3773 115.02C79.5841 115.02 79.7496 114.978 79.915 114.937C80.0804 114.896 80.2045 114.813 80.2872 114.73C80.37 114.647 80.4527 114.522 80.5354 114.398C80.5768 114.274 80.6181 114.149 80.6181 113.983H81.1972C81.1972 114.191 81.1558 114.398 81.0731 114.564C80.9904 114.73 80.8663 114.896 80.7422 115.061C80.5768 115.186 80.4113 115.31 80.1632 115.393C79.9564 115.517 79.6668 115.559 79.3773 115.559ZM78.0538 113.03H80.6181C80.6181 112.74 80.5768 112.533 80.5354 112.367C80.4527 112.201 80.37 112.035 80.2872 111.911C80.1632 111.786 80.0391 111.703 79.915 111.662C79.7496 111.62 79.5841 111.579 79.4187 111.579C79.1705 111.579 78.9223 111.62 78.7155 111.745C78.5087 111.828 78.3847 111.994 78.2606 112.201C78.1365 112.408 78.0951 112.698 78.0538 113.03Z" fill="#00B087"/>
</svg>
