<svg width="18" height="18" viewBox="0 0 18 18" fill="none" xmlns="http://www.w3.org/2000/svg">
<path d="M8.54854 0.0360174C8.46411 0.0501332 8.31987 0.0995393 8.2284 0.145416C7.90122 0.300692 5.02344 1.84639 5.02344 1.86404C5.02344 1.87462 6.91968 2.89097 9.23456 4.11906L13.4457 6.35645L14.2197 5.97884C14.6489 5.77063 15.5741 5.31186 16.2777 4.95896C17.5231 4.33433 17.5548 4.31316 17.4739 4.26022C17.4281 4.23199 15.5601 3.27563 13.3261 2.1393C8.84758 -0.136903 9.02348 -0.0592656 8.54854 0.0360174Z" fill="white"/>
<path d="M2.2137 3.34569C1.27789 3.84328 0.507435 4.26676 0.503916 4.28441C0.493362 4.31617 8.6588 8.60742 8.78545 8.63565C8.8347 8.64977 12.3106 6.9488 12.3106 6.91351C12.3106 6.90292 10.5902 5.98185 8.48641 4.86669C6.38261 3.75153 4.49341 2.74929 4.28584 2.63989L3.91292 2.43874L2.2137 3.34569Z" fill="white"/>
<path d="M0.0012689 9.19869L0.0118231 13.1794L0.0892206 13.3488C0.268642 13.737 0.25457 13.7299 3.8817 15.6567C5.72165 16.6343 7.46661 17.5624 7.75861 17.7177L8.29687 18V13.7723V9.541L4.16666 7.38126C1.89399 6.19199 0.0258954 5.22151 0.0153412 5.22151C0.0012689 5.22151 -0.00224917 7.01071 0.0012689 9.19869Z" fill="white"/>
<path d="M15.8882 6.28514L13.8195 7.31208V8.55428C13.8195 9.7859 13.8195 9.79649 13.7386 9.91648C13.5275 10.2341 13.1335 10.227 12.8908 9.89883C12.8204 9.80708 12.8169 9.74708 12.8063 8.81543C12.7993 8.27197 12.7817 7.83084 12.7676 7.8379C12.75 7.84496 11.969 8.22962 11.0262 8.69544L9.31641 9.5424V13.7701C9.31641 16.0957 9.33048 17.9943 9.34455 17.9873C9.63303 17.8744 17.4643 13.8513 17.5803 13.7596C17.6824 13.6784 17.7914 13.5443 17.8653 13.4031L17.9884 13.1773L17.999 9.21421C18.0025 7.03682 17.9955 5.25467 17.9814 5.25467C17.9638 5.2582 17.0245 5.7205 15.8882 6.28514Z" fill="white"/>
</svg>
