<svg width="15" height="15" viewBox="0 0 15 15" fill="none" xmlns="http://www.w3.org/2000/svg">
<g clip-path="url(#clip0_108_8420)">
<path d="M13.9605 13.5569H13.6561V6.06003H13.6558C13.2818 6.06003 12.9277 5.93796 12.6331 5.73242C12.4347 5.87194 12.2063 5.97507 11.9536 6.02542C11.8377 6.04851 11.7199 6.06003 11.6032 6.06003C11.5259 6.06003 11.4502 6.05142 11.3751 6.04161V11.6183C11.3751 11.9365 11.117 12.1946 10.7985 12.1946H8.72727V10.6151L9.45753 11.8339C9.54372 11.978 9.69646 12.0578 9.85313 12.0578C9.93344 12.0578 10.0152 12.0367 10.0894 11.9922C10.3074 11.8614 10.3784 11.5787 10.2475 11.3604L8.77957 8.91022C8.68871 8.7582 8.52368 8.68308 8.35844 8.69243C8.34739 8.69141 6.65766 8.69116 6.64735 8.6919C6.47988 8.68039 6.31241 8.75625 6.22009 8.91022L4.75214 11.3604C4.62125 11.5787 4.69219 11.8614 4.91026 11.9922C4.98445 12.0367 5.06622 12.0578 5.14653 12.0578C5.3032 12.0578 5.45594 11.978 5.54213 11.8339L6.27707 10.6073V12.1946H4.20139C3.88288 12.1946 3.62482 11.9365 3.62482 11.6183V6.04161C3.54971 6.05142 3.47404 6.06003 3.39669 6.06003C3.28079 6.06003 3.1629 6.04851 3.04507 6.02518C2.79262 5.97485 2.56473 5.87194 2.36656 5.73242C2.07192 5.93796 1.71807 6.06003 1.34404 6.06003H1.34379V13.5569H1.03934C0.640801 13.5569 0.317871 13.8798 0.317871 14.2784C0.317871 14.6769 0.640801 14.9999 1.03934 14.9999H13.9606C14.3592 14.9999 14.6821 14.6769 14.6821 14.2784C14.682 13.8798 14.3591 13.5569 13.9605 13.5569Z" fill="white"/>
<path d="M7.4997 6.104C6.96999 6.104 6.54004 6.59539 6.54004 7.20192C6.54004 7.80794 6.96999 8.2998 7.4997 8.2998C8.02987 8.2998 8.45961 7.80794 8.45961 7.20192C8.45958 6.59539 8.02987 6.104 7.4997 6.104Z" fill="white"/>
<path d="M1.05031 5.24763C1.14833 5.2766 1.24703 5.29056 1.34452 5.29056C1.78602 5.29056 2.19418 5.00303 2.32699 4.5581L2.38099 4.3776C2.42937 4.81006 2.74614 5.1813 3.19553 5.27072C3.26303 5.28421 3.33057 5.29059 3.39689 5.29059C3.87646 5.29059 4.30496 4.95274 4.4022 4.46479L4.42724 4.33931C4.46262 4.8277 4.84225 5.23537 5.34611 5.28545C5.38077 5.28885 5.41513 5.29034 5.44926 5.29034C5.96987 5.29034 6.41604 4.89551 6.46884 4.36609L6.47646 4.28995C6.49045 4.84466 6.94206 5.29034 7.49997 5.29034C8.05784 5.29034 8.50946 4.84466 8.52345 4.28995L8.53103 4.36609C8.58386 4.89551 9.03003 5.29034 9.55064 5.29034C9.58477 5.29034 9.61913 5.28889 9.65376 5.28545C10.1576 5.23537 10.5375 4.8277 10.5726 4.33931L10.5977 4.46479C10.6949 4.95296 11.1234 5.29059 11.6029 5.29059C11.6693 5.29059 11.7368 5.28421 11.8043 5.27072C12.2537 5.1813 12.5708 4.81006 12.6189 4.3776L12.6729 4.5581C12.8057 5.00306 13.2139 5.29056 13.6554 5.29056C13.7528 5.29056 13.8515 5.27657 13.9496 5.24763C14.4927 5.08527 14.8011 4.51362 14.6391 3.97095L13.713 0.871484C13.5586 0.354344 13.083 0 12.5432 0H2.45664C1.9169 0 1.44127 0.354344 1.28683 0.871484L0.360779 3.97095C0.198725 4.51362 0.507171 5.08527 1.05031 5.24763Z" fill="white"/>
</g>
<defs>
<clipPath id="clip0_108_8420">
<rect width="15" height="15" fill="white"/>
</clipPath>
</defs>
</svg>
