<svg width="23" height="24" viewBox="0 0 23 24" fill="none" xmlns="http://www.w3.org/2000/svg">
<g clip-path="url(#clip0_840_23061)">
<path d="M20.5218 0H2.47821C1.11173 0 0 1.16002 0 2.58591V18.4015C0 19.8274 1.11173 20.9875 2.47821 20.9875H8.33391L11.0235 23.794C11.1498 23.9259 11.3212 24 11.5 24C11.6787 24 11.85 23.9259 11.9764 23.794L14.666 20.9875H20.5218C21.8883 20.9875 23 19.8274 23 18.4015V2.58591C23 1.16002 21.8883 0 20.5218 0ZM21.6523 18.4015C21.6523 19.052 21.1452 19.5812 20.5218 19.5812H14.387C14.2082 19.5812 14.0368 19.6553 13.9105 19.7872L11.5 22.3025L9.08949 19.7872C8.96313 19.6553 8.79175 19.5812 8.61301 19.5812H2.47821C1.85482 19.5812 1.34766 19.052 1.34766 18.4015V2.58591C1.34766 1.93542 1.85482 1.40625 2.47821 1.40625H20.5218C21.1452 1.40625 21.6523 1.93542 21.6523 2.58591V18.4015Z" fill="white"/>
<path d="M17.2889 8.08806L13.7069 7.54478L12.1046 4.1575C11.9911 3.91755 11.7568 3.76562 11.5003 3.76562C11.2439 3.76562 11.0097 3.91755 10.8961 4.15755L9.29391 7.54478L5.71171 8.08806C5.4579 8.12655 5.24704 8.31203 5.16775 8.56661C5.08851 8.82114 5.15463 9.10056 5.33827 9.28736L7.93054 11.9239L7.3187 15.6468C7.27535 15.9106 7.37925 16.1771 7.58675 16.3345C7.79429 16.4918 8.06939 16.5125 8.29638 16.388L11.5003 14.6304L14.7046 16.388C14.8032 16.4421 14.9109 16.4688 15.0181 16.4688H15.0209C15.3922 16.4678 15.6929 16.1534 15.6929 15.7657C15.6929 15.7117 15.6871 15.6591 15.6761 15.6085L15.0701 11.9239L17.6623 9.28741C17.846 9.10061 17.9121 8.82119 17.8328 8.56666C17.7536 8.31203 17.5427 8.12655 17.2889 8.08806ZM13.8757 11.1749C13.7169 11.3365 13.6444 11.5692 13.6819 11.7973L14.1231 14.4803L11.8139 13.2136C11.6176 13.1059 11.3831 13.1059 11.1868 13.2136L8.87776 14.4803L9.31871 11.7973C9.35618 11.5692 9.28372 11.3365 9.12492 11.175L7.25671 9.2748L9.83832 8.88325C10.0578 8.84997 10.2475 8.70616 10.3456 8.49864L11.5004 6.05734L12.6553 8.49869C12.7534 8.70616 12.9431 8.84997 13.1626 8.88325L15.744 9.2748L13.8757 11.1749Z" fill="white"/>
</g>
<defs>
<clipPath id="clip0_840_23061">
<rect width="23" height="24" fill="white"/>
</clipPath>
</defs>
</svg>
