<svg width="26" height="26" viewBox="0 0 26 26" fill="none" xmlns="http://www.w3.org/2000/svg">
<g clip-path="url(#clip0_840_21471)">
<path d="M15.6544 5.74619H18.9843L18.9846 9.63114L20.6728 7.00991V4.81266C20.6728 4.67845 20.6194 4.54975 20.5245 4.45442L16.2182 0.148262C16.1233 0.0534238 15.9945 0 15.8601 0H2.54521C1.70739 0 1.02563 0.681448 1.02563 1.51933V24.4807C1.02563 25.3185 1.70733 26 2.54521 26H19.1532C19.991 26 20.6727 25.3185 20.6727 24.4807V17.9617L18.9849 20.5444L18.9851 24.3115H2.71402V1.68839H15.0273V5.11897C15.0273 5.46557 15.308 5.74619 15.6544 5.74619Z" fill="black"/>
<path d="M22.5581 12.0782L21.8603 11.6223C21.7464 11.548 21.594 11.5799 21.5195 11.6938L17.7626 17.4426L17.0402 16.9706L20.7971 11.2217C20.8715 11.1077 20.8396 10.9553 20.7257 10.8809L20.028 10.4249C19.914 10.3505 19.7615 10.3825 19.6871 10.4964L14.0619 19.1044C14.038 19.141 14.0243 19.1833 14.0221 19.2269L13.8751 22.2143C13.8708 22.3015 13.9131 22.3848 13.9863 22.4324C14.0595 22.4803 14.1527 22.4856 14.2308 22.4467L16.9077 21.1125C16.947 21.0931 16.9801 21.0634 17.0042 21.0267L22.6293 12.4188C22.7039 12.3052 22.6718 12.1527 22.5581 12.0782Z" fill="black"/>
<path d="M24.8631 8.55089L22.3331 6.89754C22.2193 6.82319 22.0667 6.85513 21.9923 6.96898L20.286 9.58006C20.2116 9.69396 20.2435 9.84662 20.3574 9.92103L22.8874 11.5743C23.0012 11.6487 23.1539 11.6167 23.2283 11.5028L24.9345 8.8918C25.009 8.77789 24.977 8.6253 24.8631 8.55089Z" fill="black"/>
<path d="M5.173 5.41388H10.0016C10.3435 5.41388 10.6206 5.13667 10.6206 4.79483C10.6206 4.45299 10.3435 4.17578 10.0016 4.17578H5.173C4.8311 4.17578 4.55396 4.45299 4.55396 4.79483C4.55396 5.13667 4.83123 5.41388 5.173 5.41388Z" fill="black"/>
<path d="M14.3349 7.89053C14.3349 7.54869 14.0576 7.27148 13.7159 7.27148H5.173C4.8311 7.27148 4.55396 7.54869 4.55396 7.89053C4.55396 8.23237 4.8311 8.50958 5.173 8.50958H13.7159C14.0578 8.50958 14.3349 8.23237 14.3349 7.89053Z" fill="black"/>
<path d="M5.173 11.6053H10.0016C10.3435 11.6053 10.6206 11.3281 10.6206 10.9862C10.6206 10.6444 10.3435 10.3672 10.0016 10.3672H5.173C4.8311 10.3672 4.55396 10.6444 4.55396 10.9862C4.55396 11.3281 4.83123 11.6053 5.173 11.6053Z" fill="black"/>
<path d="M5.173 14.701H10.0016C10.3435 14.701 10.6206 14.4238 10.6206 14.0819C10.6206 13.7402 10.3435 13.4629 10.0016 13.4629H5.173C4.8311 13.4629 4.55396 13.7402 4.55396 14.0819C4.55396 14.4238 4.83123 14.701 5.173 14.701Z" fill="black"/>
<path d="M5.43508 22.6992C5.31455 22.8549 5.53196 23.0757 5.65398 22.9179C6.03859 22.421 6.35622 21.8859 6.62149 21.321C6.78702 21.425 7.00437 21.4042 7.18265 21.3337C7.43962 21.2324 7.65746 21.0368 7.86491 20.8599C7.98754 20.7552 8.13029 20.5825 8.30003 20.5659C8.42966 20.5535 8.60473 20.6579 8.7343 20.6801C9.07285 20.7378 9.4683 20.6398 9.79516 20.559C10.1054 20.4824 10.4686 20.3613 10.6512 20.0804C10.7603 19.9125 10.4922 19.7575 10.3839 19.9243C10.2378 20.1492 9.8809 20.2193 9.63972 20.2788C9.35662 20.3488 9.02816 20.4179 8.7364 20.3681C8.51652 20.3307 8.33866 20.1977 8.11259 20.2984C7.80975 20.4334 7.57841 20.717 7.31098 20.9084C7.19132 20.9941 7.05457 21.0765 6.90489 21.088C6.84329 21.0928 6.79309 21.0702 6.75136 21.0326C6.7843 20.9562 6.81698 20.8794 6.84812 20.802C7.14997 20.0527 7.28647 19.2917 7.42656 18.5025C7.49775 18.1014 7.61617 17.4694 7.04132 17.4308C6.5334 17.3969 6.09443 18.1295 5.93211 18.5156C5.78695 18.861 5.77079 19.2621 5.78187 19.6308C5.78874 19.8606 5.87145 20.0992 5.93242 20.3368C5.44499 20.4149 5.01537 20.9073 5.09064 21.3953C5.16474 21.8756 5.76528 21.6276 5.98956 21.4499C6.21657 21.27 6.29005 21.0454 6.29246 20.8031C6.33772 20.8777 6.37554 20.9671 6.41466 21.0508C6.15312 21.6375 5.82521 22.1951 5.43508 22.6992ZM5.97761 20.9472C5.93181 21.1514 5.67348 21.3529 5.47006 21.3717C5.31003 21.3866 5.40766 21.1008 5.43929 21.0369C5.53859 20.8362 5.7846 20.7052 5.99142 20.6488C6.00108 20.7495 5.99953 20.8493 5.97761 20.9472ZM6.23613 20.3479C6.18345 20.1018 6.11034 19.8546 6.0914 19.6309C6.05475 19.1991 6.13145 18.7466 6.34558 18.369C6.47935 18.133 6.75204 17.7714 7.04132 17.7404C7.29965 17.7129 7.14211 18.3412 7.11976 18.4674C7.05061 18.857 7.00127 19.2438 6.90489 19.6289C6.81537 19.9866 6.70196 20.3408 6.56633 20.6872C6.49421 20.5077 6.4003 20.3928 6.23613 20.3479Z" fill="black"/>
</g>
<defs>
<clipPath id="clip0_840_21471">
<rect width="26" height="26" fill="white"/>
</clipPath>
</defs>
</svg>
