<svg width="9" height="9" viewBox="0 0 9 9" fill="none" xmlns="http://www.w3.org/2000/svg">
<path d="M8.98524 6.46524L8.54294 5.19932C8.84235 4.67582 8.99999 4.0827 8.99999 3.4758C8.99999 1.55925 7.44074 0 5.52418 0C4.47468 0 3.50337 0.459403 2.84293 1.26413C1.22751 1.56253 0 2.98154 0 4.68201C0 5.2889 0.157658 5.88203 0.457048 6.40554L0.0147656 7.67145C-0.016418 7.76071 0.00258393 7.85985 0.0645643 7.93125C0.126545 8.00267 0.222029 8.03537 0.314806 8.01707L1.7946 7.72453C2.30739 8.0083 2.8864 8.15778 3.47581 8.15778C4.55092 8.15778 5.51351 7.66707 6.15158 6.89794C6.51543 6.82814 6.88302 6.69579 7.20523 6.51829L8.68519 6.81084C8.77795 6.8293 8.87343 6.79646 8.93543 6.72503C8.99743 6.65364 9.01643 6.5545 8.98524 6.46524ZM0.457048 7.82227C-0.0721229 7.82227 2.42752 7.48851 1.97458 7.21997C1.93361 7.19566 1.88712 7.18309 1.84011 7.18309C1.82306 7.18309 1.80592 7.18475 1.78898 7.1881L1.5 7.5L0.995501 6.46322C1.02182 6.38791 1.01262 6.30472 0.97047 6.23699C0.680589 5.77098 0.75 5.80125 0.75 5.25C2.2645 6.79269 1.85003 1.73355 3.47581 1.73355C0.995501 1.5 0.664558 3.94671 0.664558 5.57249C1.08232 7.18309 0.0147656 8.01707 0.457048 7.82227ZM8.00449 5.25703L8.33543 6.20419L7.21101 5.98191C7.14736 5.96926 7.08125 5.98066 7.02541 6.01376C6.88951 6.09434 6.74245 6.16529 6.58986 6.2247C6.82122 5.75958 6.95161 5.23577 6.95161 4.68201C6.95161 2.81886 5.47802 1.29357 3.63514 1.21001C4.15831 0.770975 4.82037 0.527343 5.52418 0.527343C7.14998 0.527325 8.47265 1.85002 8.47265 3.4758C8.47265 4.02707 8.31942 4.56478 8.02952 5.03078C7.98737 5.09853 7.97818 5.18172 8.00449 5.25703Z" fill="#00B087"/>
<path d="M1.46143 4.03906C1.31581 4.03906 1.19775 4.15712 1.19775 4.30273V5.06104C1.19775 5.20665 1.31581 5.32471 1.46143 5.32471C1.60704 5.32471 1.7251 5.20665 1.7251 5.06104V4.30273C1.7251 4.1571 1.60706 4.03906 1.46143 4.03906Z" fill="white"/>
<path d="M2.46863 3.48535C2.32301 3.48535 2.20496 3.60341 2.20496 3.74902V5.61513C2.20496 5.76075 2.32301 5.87881 2.46863 5.87881C2.61425 5.87881 2.7323 5.76075 2.7323 5.61513V3.74902C2.7323 3.60341 2.61425 3.48535 2.46863 3.48535Z" fill="white"/>
<path d="M3.47583 4.03906C3.33021 4.03906 3.21216 4.15712 3.21216 4.30273V5.06104C3.21216 5.20665 3.33021 5.32471 3.47583 5.32471C3.62145 5.32471 3.7395 5.20665 3.7395 5.06104V4.30273C3.7395 4.1571 3.62145 4.03906 3.47583 4.03906Z" fill="white"/>
<path d="M4.48303 3.74707C4.33742 3.74707 4.21936 3.86512 4.21936 4.01074V5.35346C4.21936 5.49908 4.33742 5.61714 4.48303 5.61714C4.62865 5.61714 4.7467 5.49908 4.7467 5.35346V4.01074C4.7467 3.86511 4.62865 3.74707 4.48303 3.74707Z" fill="white"/>
<path d="M5.49011 4.24902C5.3445 4.24902 5.22644 4.36708 5.22644 4.5127V4.85095C5.22644 4.99657 5.3445 5.11462 5.49011 5.11462C5.63573 5.11462 5.75378 4.99657 5.75378 4.85095V4.5127C5.75378 4.36708 5.63575 4.24902 5.49011 4.24902Z" fill="white"/>
</svg>
