<svg width="32" height="32" viewBox="0 0 32 32" fill="none" xmlns="http://www.w3.org/2000/svg">
<g clip-path="url(#clip0_48_2352)">
<path d="M24.2448 3.50648H23.229V2.39161C23.229 1.75463 22.753 1.23828 22.1657 1.23828C21.5785 1.23828 21.1024 1.75463 21.1024 2.39161V3.50648H10.6698V2.39161C10.6698 1.75463 10.1937 1.23828 9.60646 1.23828C9.01918 1.23828 8.54313 1.75463 8.54313 2.39161V3.50648H7.52739C4.62819 3.50648 2.26953 6.06481 2.26953 9.20937V25.0607C2.26953 28.2053 4.62819 30.7636 7.52739 30.7636H24.2449C27.144 30.7636 29.5027 28.2053 29.5027 25.0607V9.20937C29.5027 6.06481 27.144 3.50648 24.2448 3.50648ZM7.52739 5.81315H8.54313V8.06215C8.54313 8.69913 9.01918 9.21548 9.60646 9.21548C10.1937 9.21548 10.6698 8.69913 10.6698 8.06215V5.81315H21.1025V8.06215C21.1025 8.69913 21.5785 9.21548 22.1658 9.21548C22.7531 9.21548 23.2291 8.69913 23.2291 8.06215V5.81315H24.2449C25.9714 5.81315 27.3761 7.3367 27.3761 9.20937V10.3111H4.39618V9.20937C4.39618 7.3367 5.80082 5.81315 7.52739 5.81315ZM24.2448 28.4569H7.52739C5.80082 28.4569 4.39618 26.9334 4.39618 25.0607V12.6178H27.3761V25.0607C27.3761 26.9334 25.9714 28.4569 24.2448 28.4569ZM11.7154 17.1543C11.7154 17.7913 11.2393 18.3076 10.6521 18.3076H8.56089C7.97362 18.3076 7.49757 17.7913 7.49757 17.1543C7.49757 16.5173 7.97362 16.0009 8.56089 16.0009H10.6521C11.2393 16.0009 11.7154 16.5173 11.7154 17.1543ZM24.2747 17.1543C24.2747 17.7913 23.7987 18.3076 23.2114 18.3076H21.1202C20.5329 18.3076 20.0569 17.7913 20.0569 17.1543C20.0569 16.5173 20.5329 16.0009 21.1202 16.0009H23.2114C23.7986 16.0009 24.2747 16.5173 24.2747 17.1543ZM17.989 17.1543C17.989 17.7913 17.5129 18.3076 16.9257 18.3076H14.8345C14.2472 18.3076 13.7712 17.7913 13.7712 17.1543C13.7712 16.5173 14.2472 16.0009 14.8345 16.0009H16.9257C17.5129 16.0009 17.989 16.5173 17.989 17.1543ZM11.7154 23.9589C11.7154 24.5959 11.2393 25.1123 10.6521 25.1123H8.56089C7.97362 25.1123 7.49757 24.5959 7.49757 23.9589C7.49757 23.3219 7.97362 22.8056 8.56089 22.8056H10.6521C11.2393 22.8056 11.7154 23.3219 11.7154 23.9589ZM24.2747 23.9589C24.2747 24.5959 23.7987 25.1123 23.2114 25.1123H21.1202C20.5329 25.1123 20.0569 24.5959 20.0569 23.9589C20.0569 23.3219 20.5329 22.8056 21.1202 22.8056H23.2114C23.7986 22.8056 24.2747 23.3219 24.2747 23.9589ZM17.989 23.9589C17.989 24.5959 17.5129 25.1123 16.9257 25.1123H14.8345C14.2472 25.1123 13.7712 24.5959 13.7712 23.9589C13.7712 23.3219 14.2472 22.8056 14.8345 22.8056H16.9257C17.5129 22.8056 17.989 23.3219 17.989 23.9589Z" fill="white"/>
</g>
<defs>
<clipPath id="clip0_48_2352">
<rect width="27.2332" height="29.5385" fill="white" transform="translate(2.26953 1.23145)"/>
</clipPath>
</defs>
</svg>
