<svg width="71" height="58" viewBox="0 0 71 58" fill="none" xmlns="http://www.w3.org/2000/svg">
<path d="M43.3476 41.9294H46.8612V43.2706C47.181 42.2791 47.8862 41.7812 48.9726 41.7812C50.0591 41.7812 50.7356 42.3079 50.9692 43.357C51.3095 42.3079 52.0229 41.7812 53.1135 41.7812C54.5402 41.7812 55.2536 42.5917 55.2536 44.2168V48.6067H56.0695V48.87H52.0311V48.6067H52.5395V43.8671C52.5395 43.1266 52.478 42.6946 52.3509 42.5712C52.2935 42.5136 52.2156 42.4848 52.1172 42.4848C51.8343 42.4848 51.5883 42.674 51.3751 43.0525C51.1619 43.431 51.0553 43.9124 51.0553 44.4966V48.6108H51.5801V48.8741H47.8329V48.6108H48.3412V43.8712C48.3412 43.1307 48.2797 42.6987 48.1526 42.5753C48.0952 42.5177 48.0173 42.4889 47.919 42.4889C47.6484 42.4889 47.3983 42.6987 47.1769 43.1142C46.9637 43.5215 46.8571 44.0152 46.8571 44.5871V48.6108H47.3819V48.8741H43.3435V48.6108H44.1471V42.1927H43.3435V41.9294H43.3476Z" fill="white"/>
<path d="M56.2151 42.2543V41.9951H60.401V42.2543H59.6221L61.1964 47.0473L62.8691 42.2543H61.9016V41.9951H63.9351V42.2543H63.2135L60.5158 50.0383C60.2001 50.9434 59.8434 51.5729 59.4499 51.9308C59.0563 52.297 58.5725 52.478 58.0067 52.478C57.4409 52.478 56.9899 52.3464 56.6661 52.0872C56.3381 51.828 56.1741 51.4947 56.1741 51.0915C56.1741 50.6883 56.2807 50.3798 56.4898 50.1659C56.703 49.956 56.9817 49.8491 57.3261 49.8491C58.1256 49.8491 58.5233 50.1823 58.5233 50.8447C58.5233 50.9887 58.4946 51.1615 58.4372 51.3631H57.9329C57.855 51.5852 57.8468 51.7663 57.9042 51.9103C57.9616 52.0543 58.0928 52.1283 58.2937 52.1283C58.6873 52.1283 59.0399 51.9308 59.3474 51.5359C59.6549 51.1491 59.95 50.5567 60.2288 49.7585L60.5445 48.8617H59.2736L56.8054 42.2461H56.2151V42.2543Z" fill="white"/>
<path d="M34.1451 31.2202C33.5875 31.2202 33.1898 31.5246 32.9479 32.1335C32.706 32.7424 32.5872 33.7504 32.5872 35.1533V36.1407C32.5872 37.3955 32.7265 38.2924 33.0053 38.8396C33.2841 39.3827 33.7966 39.6583 34.5428 39.6583C35.289 39.6583 35.8834 39.4033 36.3262 38.8972C36.769 38.3912 37.056 37.8152 37.179 37.1693L37.5193 37.2063C37.2774 38.2965 36.8346 39.0823 36.1909 39.5637C35.5309 40.0574 34.6289 40.3043 33.4768 40.3043C32.0091 40.3043 30.8816 39.9134 30.0985 39.1276C29.3155 38.3295 28.9219 37.1693 28.9219 35.6511C28.9219 34.133 29.3647 32.9399 30.2502 32.1171C31.1481 31.2942 32.3945 30.8828 33.9893 30.8828C35.1168 30.8828 35.9777 31.105 36.5722 31.5493C37.1667 31.9813 37.466 32.5244 37.466 33.1826C37.466 33.8409 37.3184 34.3223 37.0273 34.6267C36.7485 34.9312 36.3549 35.0834 35.8506 35.0834C35.3464 35.0834 34.9569 34.9517 34.6535 34.6843C34.3501 34.4169 34.1984 34.026 34.1984 33.5077C34.1984 33.2814 34.2312 33.051 34.2927 32.8247H34.92C35.0102 32.5696 35.0512 32.3433 35.0512 32.1417C35.0512 31.5329 34.7478 31.2284 34.141 31.2284L34.1451 31.2202Z" fill="white"/>
<path d="M44.1387 36.3674V34.7505C44.1387 33.5204 44.069 32.6276 43.9296 32.0722C43.8025 31.5004 43.4992 31.2165 43.0195 31.2165C42.7407 31.2165 42.5111 31.2988 42.3348 31.4633C42.1708 31.6155 42.0519 31.8747 41.974 32.2409C41.8592 32.8128 41.8018 33.6767 41.8018 34.8452V36.3263C41.8018 37.7086 41.8387 38.5356 41.9166 38.8153C42.0068 39.0951 42.0929 39.3214 42.1831 39.4983C42.3225 39.8027 42.5931 39.955 42.999 39.955C43.491 39.955 43.8148 39.6711 43.9665 39.0992C44.0813 38.6919 44.1387 37.7827 44.1387 36.3633V36.3674ZM42.9621 40.3006C41.3795 40.3006 40.1824 39.8933 39.3747 39.0828C38.5629 38.2723 38.1611 37.1121 38.1611 35.6063C38.1611 34.1005 38.5916 32.9197 39.4526 32.1092C40.3259 31.2864 41.5476 30.875 43.1179 30.875C44.6881 30.875 45.8566 31.2535 46.6314 32.0146C47.4022 32.7634 47.7876 33.9071 47.7876 35.4541C47.7876 38.6837 46.1805 40.3006 42.9662 40.3006H42.9621Z" fill="white"/>
<path d="M54.4478 36.3674V34.7505C54.4478 33.5204 54.3781 32.6276 54.2387 32.0722C54.1116 31.5004 53.8082 31.2165 53.3285 31.2165C53.0498 31.2165 52.8202 31.2988 52.6439 31.4633C52.4799 31.6155 52.3569 31.8747 52.2831 32.2409C52.1683 32.8128 52.1109 33.6767 52.1109 34.8452V36.3263C52.1109 37.7086 52.1478 38.5356 52.2257 38.8153C52.3159 39.0951 52.402 39.3214 52.4922 39.4983C52.6316 39.8027 52.9022 39.955 53.3081 39.955C53.8 39.955 54.1239 39.6711 54.2756 39.0992C54.3904 38.6919 54.4478 37.7827 54.4478 36.3633V36.3674ZM53.2712 40.3006C51.6886 40.3006 50.4914 39.8933 49.6838 39.0828C48.8761 38.2723 48.4702 37.1121 48.4702 35.6063C48.4702 34.1005 48.9007 32.9197 49.7617 32.1092C50.6349 31.2864 51.8567 30.875 53.4269 30.875C54.9972 30.875 56.1657 31.2535 56.9405 32.0146C57.7113 32.7634 58.0967 33.9071 58.0967 35.4541C58.0967 38.6837 56.4895 40.3006 53.2753 40.3006H53.2712Z" fill="white"/>
<path d="M64.8345 40.1111V39.7696H65.7077L63.5635 35.3634L63.2027 35.458V39.7696H64.076V40.1111H58.6273V39.7696H59.6727V26.2052H58.5535V25.8638H63.2068V35.0795L63.5102 34.9643L67.7823 31.4097H65.9988V31.0682H69.7379V31.4097H68.4095L66.1505 33.3269L69.4345 39.7696H70.1192V40.1111H64.8427H64.8345Z" fill="white"/>
<path d="M14.8789 37.9307H18.4499V48.6069H19.2658V48.8702H14.9363V48.6069H15.7399V38.194H14.8789V37.9307Z" fill="white"/>
<path d="M21.6892 40.9214C21.1726 40.9214 20.8037 40.7898 20.5823 40.5264C20.3691 40.2631 20.2625 39.9381 20.2625 39.5473C20.2625 39.1564 20.3773 38.8355 20.611 38.5846C20.8529 38.3336 21.2177 38.2061 21.7056 38.2061C22.1935 38.2061 22.5625 38.3213 22.8126 38.5558C23.0668 38.7779 23.1898 39.1071 23.1898 39.5349C23.1898 39.9628 23.0668 40.2878 22.8249 40.5429C22.583 40.7939 22.2017 40.9214 21.6892 40.9214ZM19.4917 41.9294H23.0627V48.6067H23.8786V48.87H19.5491V48.6067H20.3527V42.1886H19.4917V41.9253V41.9294Z" fill="white"/>
<path d="M28.8911 48.8703V48.6111H29.5553L27.9235 45.2621L27.6488 45.3362V48.6152H28.313V48.8744H24.1721V48.6152H24.9675V38.3051H24.1147V38.0459H27.6488V45.0482L27.8784 44.9618L31.1255 42.2629H29.7685V42.0037H32.6097V42.2629H31.6011L29.8832 43.7193L32.3801 48.6152H32.9007V48.8744H28.8911V48.8703Z" fill="white"/>
<path d="M36.552 49.0143C35.3098 49.0143 34.3791 48.6975 33.7518 48.0598C33.1368 47.4139 32.8293 46.5253 32.8293 45.3897C32.8293 44.2542 33.1737 43.3697 33.8666 42.7608C34.5677 42.156 35.4574 41.8516 36.5356 41.8516C38.7208 41.8516 39.7663 42.95 39.6802 45.1429H35.6091V45.7065C35.6091 46.6487 35.7279 47.3604 35.9698 47.8418C36.2117 48.3231 36.6299 48.5618 37.2244 48.5618C38.3396 48.5618 39.0734 47.9652 39.4178 46.7721L39.6761 46.8132C39.4916 47.5085 39.1595 48.0475 38.6798 48.4301C38.2084 48.8168 37.495 49.0061 36.5438 49.0061L36.552 49.0143ZM35.6255 44.8549H37.1137V44.1473C37.1137 43.3656 37.0645 42.839 36.9702 42.5592C36.8841 42.2712 36.6996 42.1272 36.4208 42.1272C36.142 42.1272 35.9493 42.2794 35.814 42.588C35.6869 42.8883 35.6255 43.4067 35.6255 44.1473V44.8549Z" fill="white"/>
<path d="M21.4297 50.9069H24.9433V52.2481C25.2631 51.2566 25.9682 50.7588 27.0547 50.7588C28.1412 50.7588 28.8176 51.2854 29.0513 52.3345C29.3916 51.2854 30.105 50.7588 31.1956 50.7588C32.6223 50.7588 33.3398 51.5693 33.3398 53.1944V57.5842H34.1557V57.8475H30.1173V57.5842H30.6257V52.8447C30.6257 52.1041 30.5642 51.6721 30.4371 51.5487C30.3797 51.4911 30.3018 51.4623 30.2034 51.4623C29.9205 51.4623 29.6745 51.6516 29.4613 52.0301C29.2481 52.4086 29.1415 52.8899 29.1415 53.4741V57.5883H29.6663V57.8516H25.919V57.5883H26.4274V52.8488C26.4274 52.1082 26.3659 51.6762 26.2388 51.5528C26.1814 51.4952 26.1035 51.4664 26.0051 51.4664C25.7345 51.4664 25.4845 51.6762 25.2631 52.0918C25.0499 52.4991 24.9433 52.9928 24.9433 53.5646V57.5883H25.4681V57.8516H21.4297V57.5883H22.2333V51.1702H21.4297V50.9069Z" fill="white"/>
<path d="M39.0711 54.9756V53.7372C39.0711 52.7951 39.0178 52.108 38.9112 51.6802C38.8128 51.2441 38.5791 51.0219 38.2101 51.0219C37.9969 51.0219 37.8206 51.0836 37.6853 51.2111C37.5582 51.3263 37.468 51.5279 37.4066 51.8077C37.3205 52.2438 37.2754 52.9103 37.2754 53.8072V54.9427C37.2754 56.0041 37.3041 56.6377 37.3615 56.8517C37.4312 57.0656 37.4967 57.2384 37.5664 57.3783C37.673 57.6128 37.8821 57.728 38.1937 57.728C38.5709 57.728 38.821 57.5099 38.9358 57.0697C39.0219 56.757 39.067 56.0576 39.067 54.9715L39.0711 54.9756ZM38.1691 57.9954C36.9556 57.9954 36.0372 57.6827 35.414 57.0615C34.7908 56.4402 34.4792 55.5516 34.4792 54.3914C34.4792 53.2312 34.8113 52.3302 35.4714 51.709C36.1438 51.0754 37.0786 50.7627 38.2839 50.7627C39.4893 50.7627 40.3871 51.0548 40.9816 51.639C41.5761 52.2109 41.8713 53.0913 41.8713 54.2803C41.8713 56.7612 40.6372 57.9995 38.1691 57.9995V57.9954Z" fill="white"/>
<path d="M42.2778 50.9069H45.7914V52.2481C46.1112 51.2566 46.8163 50.7588 47.9028 50.7588C48.9893 50.7588 49.6657 51.2854 49.8994 52.3345C50.2397 51.2854 50.9531 50.7588 52.0396 50.7588C53.4663 50.7588 54.1797 51.5693 54.1797 53.1944V57.5842H54.9956V57.8475H50.9572V57.5842H51.4656V52.8447C51.4656 52.1041 51.4041 51.6721 51.277 51.5487C51.2196 51.4911 51.1417 51.4623 51.0433 51.4623C50.7604 51.4623 50.5144 51.6516 50.3012 52.0301C50.088 52.4086 49.9814 52.8899 49.9814 53.4741V57.5883H50.5062V57.8516H46.7589V57.5883H47.2714V52.8488C47.2714 52.1082 47.2099 51.6762 47.0828 51.5528C47.0254 51.4952 46.9475 51.4664 46.8491 51.4664C46.5785 51.4664 46.3284 51.6762 46.1071 52.0918C45.8939 52.4991 45.7873 52.9928 45.7873 53.5646V57.5883H46.312V57.8516H42.2737V57.5883H43.0732V51.1702H42.2737V50.9069H42.2778Z" fill="white"/>
<path d="M14.5725 11.2658C14.5402 11.09 14.531 10.7199 14.3973 10.4099C13.9915 9.44747 13.5351 8.56837 14.1114 7.44404C14.8169 6.06986 15.6699 4.85762 17.0485 4.16822C20.5435 2.43314 24.0154 2.79866 27.3812 4.55687C28.6999 5.24627 29.931 6.10687 31.1944 6.89807C34.1637 8.75344 37.4281 9.42896 40.9508 9.37344C40.8539 9.22538 40.8171 9.07269 40.7387 9.05881C36.5014 8.07792 32.9787 5.78299 29.7189 2.99762C26.2286 0.0132895 22.2679 -0.708502 17.9476 0.679558C14.5541 1.76687 12.4884 4.11732 11.8614 7.77254C11.3818 7.56433 10.9899 7.38389 10.5888 7.22657C5.73825 5.29717 0.767837 8.24448 0.0900525 13.4312C-0.809049 20.3715 5.1573 26.0394 12.0504 24.7809L13.4844 24.5218C13.3599 28.0799 13.24 31.5685 13.1063 35.344C18.1505 31.4621 23.6926 29.6437 29.7281 29.1764C24.9283 28.3945 20.2161 28.6305 15.3287 30.5922C15.4993 28.7091 15.3978 26.9324 15.9004 25.3546C16.1863 24.457 17.3436 23.6149 18.3026 23.1939C20.8386 22.0788 23.5866 22.1528 26.2885 22.3611C30.1708 22.6572 34.1314 23.1569 37.4604 25.1834C41.3196 27.5339 44.6624 26.7381 47.83 24.3414C51.2097 21.7827 52.4639 18.1506 51.5832 13.9957C50.6887 9.74821 47.6641 7.55045 43.6619 6.57418C41.7853 6.11613 39.835 5.96807 37.9676 5.48687C36.4276 5.07971 34.966 4.38568 33.1632 3.70553C33.8732 4.34866 34.3159 4.99642 34.9291 5.26016C36.9809 6.15314 39.0834 6.94433 41.1859 7.72627C41.7853 7.95299 42.44 8.02702 43.0579 8.20747C45.9581 9.05419 48.2174 10.6597 48.7522 13.8245C49.3332 17.2391 48.4663 20.2928 45.7137 22.5461C42.9611 24.804 39.6966 24.3922 37.3912 21.7225C38.2442 20.9406 39.2171 20.2558 39.9226 19.3628C40.628 18.4699 41.066 17.3733 41.4902 16.2305C39.2771 18.9048 36.6627 20.6445 33.0986 20.6676C29.4653 20.6908 26.8971 18.9696 25.0574 15.939L24.707 16.0593C24.9975 17.2622 25.2833 18.4652 25.5738 19.6636C22.6506 20.1818 20.3452 17.8406 18.8651 12.5336C18.1874 15.5087 18.7314 17.9655 20.6541 20.0985C18.4087 21.01 16.2508 20.0569 13.7748 17.1096C13.678 18.4282 14.0745 19.2472 15.7898 21.1951C12.9818 22.7775 10.0862 23.5316 7.02927 22.2315C4.07376 20.973 2.4646 18.5809 2.15107 15.393C1.68538 10.7013 6.34688 7.4024 11.0637 9.15598C12.3363 9.62792 13.429 10.5672 14.5633 11.2658H14.5725Z" fill="#EF9B0F"/>
</svg>
